<svg width="211" height="508" viewBox="0 0 211 508" fill="none" xmlns="http://www.w3.org/2000/svg">
        <g clip-path="url(#clip0_4_482)">
        <path d="M173.18 321.6L155.26 214.7L108.34 215.66V215.62L104.83 215.69L101.32 215.62V215.66L55.4 214.7L38.48 320.6C38.16 322.42 38.08 324.27 38.23 326.11L49.21 421.3L89.68 434.01L87.49 344.73C87.17 341.8 87.43 338.83 88.27 336L101.64 268.93C102.12 266.41 103.68 265.21 104.83 265.18C105.83 265.4 107.23 267.42 107.64 268.81L123.39 337C124.23 339.83 124.49 342.8 124.17 345.73L120.98 434.01L161.45 421.3L173.43 327.11C173.58 325.27 173.5 323.42 173.18 321.6Z" fill="#171717"/>
        <path d="M104.83 237.12L77.42 329.62L81.67 417.95L55.35 414.52L47.3 324.75L47.5201 319.69L63.25 239.25L104.83 237.12Z" fill="url(#paint0_linear_4_482)"/>
        <path d="M104.83 237.12L134.24 330.62L128.99 417.95L155.31 414.52L164.36 325.75L164.14 320.69L147.41 239.25L104.83 237.12Z" fill="url(#paint1_linear_4_482)"/>
        <path d="M69.6701 113.96L18.3601 213.43L34.1501 215.01L41.2501 211.56L164.52 209.25L182.22 214.67L197.31 213.43L141.9 114.92L69.6701 113.96Z" fill="#C01212"/>
        <path d="M34.1501 215.01L57.9601 154.64L42.9901 211.53L34.1501 215.01Z" fill="url(#paint2_linear_4_482)"/>
        <path d="M164.52 209.25L156.48 160.62L182.22 214.67L164.52 209.25Z" fill="url(#paint3_linear_4_482)"/>
        <path d="M57.54 114.02C57.54 114.02 37.16 154.82 35.8899 180.1C34.7799 202.25 36.15 251.84 36.15 251.84L13.2 269.61L32.5 293.24L50.08 275.43L73.4 166.09L69.0599 121.24L57.54 114.01V114.02Z" fill="url(#paint4_linear_4_482)"/>
        <path d="M38.52 286.02L40.17 283.52L30.97 277.46L37.61 269.79L38.14 261.87L35.14 261.67L34.68 268.58L26.47 278.08L38.52 286.02Z" fill="#930941"/>
        <path d="M57.54 114.02L50.2 129.78L62.29 160.03L73.4 166.1L71.65 121.14L57.54 114.02Z" fill="#930941"/>
        <path d="M151.15 114.51C151.15 114.51 172.83 154.64 174.91 179.86C176.73 201.97 176.96 251.57 176.96 251.57L201.47 267.62L181.94 292.83L163.79 275.6L136.98 167.07L139.88 122.11L151.17 114.51H151.15Z" fill="url(#paint5_linear_4_482)"/>
        <path d="M175.68 285.81L173.95 283.36L182.95 277.01L176.07 269.56L175.29 261.65L178.27 261.36L178.95 268.26L187.47 277.48L175.68 285.81Z" fill="#930941"/>
        <path d="M151.15 114.51L158.99 130.02L147.88 160.65L136.97 167.07L137.27 122.08L151.15 114.51Z" fill="#930941"/>
        <path d="M58.44 112.22L85.8 106.88C85.8 106.88 84.57 127.95 107.03 126.48C129.48 125 128.67 107.47 128.67 107.47L154.78 112.22L147.84 178.28L163.69 235.12L104.79 229.41L46.96 233.04L63.09 178L58.43 112.22H58.44Z" fill="#F4900F"/>
        <path d="M149.57 226.14L148.63 220.93L152.57 220.22L153.51 225.43L149.57 226.14ZM147.22 213.06L145.8 205.19L149.74 204.48L151.16 212.35L147.22 213.06ZM144.39 197.31L142.97 189.44L146.91 188.73L148.33 196.6L144.39 197.31ZM141.56 181.56L140.14 173.69L144.08 172.98L145.5 180.85L141.56 181.56ZM142.77 165.71L138.8 165.2L139.81 157.26L143.78 157.77L142.77 165.71ZM144.8 149.84L140.83 149.33L141.84 141.39L145.81 141.9L144.8 149.84ZM146.82 133.97L142.85 133.46L143.86 125.52L147.83 126.03L146.82 133.97ZM148.84 118.1L144.87 117.59L145.88 109.65L149.85 110.16L148.84 118.1Z" fill="#171717"/>
        <path d="M62.9 227.24L58.98 226.45L60.13 220.74L64.05 221.53L62.9 227.24ZM65.64 213.69L61.72 212.9L63.3 205.06L67.22 205.85L65.64 213.69ZM68.81 198.01L64.89 197.22L66.47 189.38L70.39 190.17L68.81 198.01ZM71.98 182.33L68.06 181.54L69.64 173.7L73.56 174.49L71.98 182.33ZM75.15 166.65L71.23 165.86L71.37 165.15L70.32 158.69L74.27 158.05L75.43 165.23L75.14 166.65H75.15ZM69.05 150.79L67.77 142.89L71.72 142.25L73 150.15L69.05 150.79ZM66.49 135L65.21 127.1L69.16 126.46L70.44 134.36L66.49 135ZM63.93 119.21L62.65 111.31L66.6 110.67L67.88 118.57L63.93 119.21Z" fill="#171717"/>
        <path d="M76.3201 114.43C76.3201 114.43 82.3601 129.7 106.59 129.87C128.28 130.02 143.93 118.52 137.78 108.27C133.62 101.33 88.5801 104.23 79.9101 106.94C71.2301 109.65 76.3301 114.43 76.3301 114.43H76.3201Z" fill="#C01212"/>
        <path d="M81.4401 121.42C87.3601 127.98 98.2701 131.19 106.89 130.83C113.43 130.56 119.7 128.74 125.68 126.19C130.46 124.15 135.04 121.45 137.55 116.61C138.39 115 136.58 112.71 134.86 113.92C125.92 120.17 118.61 125.06 107.51 126.46C99.7101 127.44 88.8201 125.4 82.8601 120C81.9001 119.13 80.5601 120.46 81.4301 121.43L81.4401 121.42Z" fill="url(#paint6_linear_4_482)"/>
        <path d="M80.18 112.58C79.46 114.33 87.14 120.55 104.66 116.91C122.18 113.28 128.37 113.57 130.22 111.7C132.07 109.83 129.89 107.94 128.21 107.94C126.53 107.94 113.72 113.73 103.39 114.47C93.06 115.21 80.89 110.83 80.18 112.58Z" fill="url(#paint7_linear_4_482)"/>
        <path fill-rule="evenodd" clip-rule="evenodd" d="M109.88 159.94V143.28H117.09V175.89H109.88V166.99L112.66 166.82H94.78L87.54 159.99L94.78 159.93V150.54H101.91V159.94H109.87H109.88ZM94.79 183.1V167.92L101.92 167.48V183.1H94.79Z" fill="#171717"/>
        <path d="M62.6001 20.25L62.3301 85.18L124.53 74.41L121.89 0L67.4101 14.06C64.5901 14.79 62.6101 17.33 62.6001 20.24V20.25Z" fill="url(#paint8_linear_4_482)"/>
        <path d="M121.89 0L147.11 22.99C148.88 24.6 149.91 26.87 149.98 29.26L151.54 87.38L124.53 74.41L121.89 0Z" fill="url(#paint9_linear_4_482)"/>
        <path d="M62.3301 85.17L105.1 95.46C106.41 95.77 107.76 95.81 109.08 95.55L151.54 87.37L124.53 74.4L62.3301 85.17Z" fill="url(#paint10_linear_4_482)"/>
        <path d="M124.53 74.41L62.3301 85.17L89.5201 91.72L114 86.44L96.8601 79.2L124.53 74.41Z" fill="#930941"/>
        <path d="M151.54 87.38L138.55 81.14L114 86.44L127.3 92.05L151.54 87.38Z" fill="#930941"/>
        <path d="M66.73 23.56L66.51 76.26L116.99 67.52L114.85 7.13L70.63 18.54C68.34 19.13 66.74 21.19 66.73 23.56Z" fill="url(#paint11_linear_4_482)"/>
        <path d="M66.73 23.56L66.54 69.8L116.81 62.31L114.85 7.13L70.63 18.54C68.34 19.13 66.74 21.19 66.73 23.56Z" fill="url(#paint12_linear_4_482)"/>
        <path d="M137.43 49.04L150.64 56.99L151.54 87.38L138.55 81.14L137.43 49.04Z" fill="url(#paint13_linear_4_482)"/>
        <path d="M137.43 49.04L123.33 40.57L121.89 0L136.72 13.51L137.43 49.04Z" fill="url(#paint14_linear_4_482)"/>
        <path d="M69.2301 28.19C63.1401 28.52 57.8401 34.47 57.9201 40.88C57.9601 44.41 59.5501 47.27 62.0501 48.91L72.0701 28.41C71.1801 28.22 70.2301 28.14 69.2301 28.19Z" fill="url(#paint15_linear_4_482)"/>
        <path d="M77.9499 32.74L70.4299 49.97C76.1699 48.19 80.3999 41.49 79.0399 35.57C78.7999 34.53 78.4299 33.59 77.9499 32.74Z" fill="url(#paint16_linear_4_482)"/>
        <path d="M105.09 18.78C98.1299 19.16 92.0599 25.96 92.1499 33.29C92.1999 37.33 94.0199 40.6 96.8699 42.47L108.33 19.02C107.31 18.8 106.22 18.71 105.08 18.77L105.09 18.78Z" fill="url(#paint17_linear_4_482)"/>
        <path d="M115.06 23.98L106.46 43.68C113.03 41.64 117.86 33.98 116.3 27.21C116.03 26.02 115.6 24.94 115.06 23.98Z" fill="url(#paint18_linear_4_482)"/>
        <path d="M103.43 15.6C96.64 16.91 90.81 22.87 89.45 29.88C89.34 30.43 89.26 30.98 89.19 31.48L81.08 32.73C79.22 28.03 75.01 25.23 69.95 25.39C61.84 25.65 54.43 33.38 55.35 42.5C56.19 50.91 63.93 55.36 71.81 52.25C78.05 49.79 82.19 43.41 81.95 36.7C81.95 36.53 81.98 36.3 82.04 36.09L89.16 34.99C89.22 35.34 89.28 35.68 89.33 36C90.16 41.39 94.07 45.72 99.42 46.78C105.98 48.07 111.19 45.49 115.38 40.59C117.98 37.55 119.33 33.95 119.62 29.88L119.27 24.52C116.99 16.78 111.11 14.11 103.43 15.6ZM68.48 50.61C62.42 51.24 57.78 47.07 57.7 40.92C57.62 34.38 63.03 28.3 69.25 27.96C74.27 27.69 78.13 30.59 79.25 35.49C80.79 42.2 75.31 49.89 68.47 50.61H68.48ZM104.15 44.64C97.04 45.33 91.6 40.48 91.43 33.29C91.25 25.64 97.45 18.44 104.79 17.8C111.16 17.24 116.01 21.04 117.15 27.48C118.52 35.21 111.96 43.89 104.15 44.65V44.64Z" fill="url(#paint19_linear_4_482)"/>
        <path d="M145.79 59.36C145.61 59.36 145.44 59.36 145.29 59.34L145.6 56.04C145.96 56.06 148.68 55.37 149.47 53.25C150.5 50.45 147.4 48.59 146.59 47.87L118.67 28.55L118.72 24.04L148.85 45.11C150.85 46.3 154.31 49.89 152.54 54.67C151.16 58.42 147.77 59.37 145.8 59.37L145.79 59.36Z" fill="url(#paint20_linear_4_482)"/>
        <path d="M43.4701 417.36L89.14 426.68L97.22 503.62C97.22 503.62 98.75 511.06 91.16 511.88C83.6001 512.7 2.90005 511.88 2.90005 511.88L1.55005 499.04C1.55005 499.04 2.56005 494.32 8.96005 491.29C15.36 488.26 49.43 471.28 49.43 471.28L43.4701 417.36Z" fill="url(#paint21_linear_4_482)"/>
        <path d="M0 505C0 505.72 2.71 512.51 2.71 512.51H98.88V503.32L0 505Z" fill="#171717"/>
        <path d="M28.4601 484C28.4601 484 8.42012 492.18 6.37012 497.45H38.4601L55.0801 490.72C55.0801 490.72 52.9501 483.5 28.4701 483.99L28.4601 484Z" fill="url(#paint22_linear_4_482)"/>
        <g style="mix-blend-mode:multiply" opacity="0.5">
        <path d="M47.19 448.06L92.92 459.77L90.99 442.36L46.24 439.49L47.19 448.06Z" fill="#8C8C8C"/>
        </g>
        <path d="M96.1971 412.82L40.1131 409.9C36.4784 409.711 33.3786 412.504 33.1894 416.139L32.0285 438.439C31.8393 442.073 34.6324 445.173 38.267 445.362L94.3511 448.282C97.9857 448.471 101.086 445.678 101.275 442.043L102.436 419.744C102.625 416.109 99.8318 413.009 96.1971 412.82Z" fill="url(#paint23_linear_4_482)"/>
        <path d="M92.2516 415.89L43.8372 413.369C40.2026 413.18 37.1027 415.973 36.9135 419.608L36.1327 434.608C35.9434 438.242 38.7365 441.342 42.3711 441.531L90.7856 444.052C94.4202 444.241 97.5201 441.448 97.7093 437.813L98.4901 422.814C98.6793 419.179 95.8863 416.079 92.2516 415.89Z" fill="url(#paint24_linear_4_482)"/>
        <path d="M167.18 417.43L121.51 426.75L113.43 503.69C113.43 503.69 111.9 511.13 119.49 511.95C127.05 512.77 207.75 511.95 207.75 511.95L209.1 499.11C209.1 499.11 208.09 494.39 201.69 491.36C195.29 488.33 161.22 471.35 161.22 471.35L167.18 417.43Z" fill="url(#paint25_linear_4_482)"/>
        <path d="M210.65 505.07C210.65 505.79 207.94 512.58 207.94 512.58H111.77V503.39L210.65 505.07Z" fill="#171717"/>
        <path d="M182.19 484.07C182.19 484.07 202.23 492.25 204.28 497.52H172.19L155.57 490.79C155.57 490.79 157.7 483.57 182.18 484.06L182.19 484.07Z" fill="url(#paint26_linear_4_482)"/>
        <g style="mix-blend-mode:multiply" opacity="0.5">
        <path d="M163.46 448.13L117.72 459.84L119.66 442.43L164.4 439.57L163.46 448.13Z" fill="#8C8C8C"/>
        </g>
        <path d="M116.264 448.351L172.348 445.431C175.983 445.242 178.776 442.142 178.587 438.508L177.426 416.208C177.237 412.573 174.137 409.78 170.502 409.969L114.418 412.889C110.784 413.078 107.991 416.178 108.18 419.813L109.341 442.113C109.53 445.747 112.63 448.54 116.264 448.351Z" fill="url(#paint27_linear_4_482)"/>
        <path d="M119.818 444.132L168.233 441.611C171.868 441.422 174.661 438.322 174.471 434.688L173.691 419.688C173.501 416.053 170.401 413.26 166.767 413.45L118.352 415.97C114.718 416.159 111.925 419.259 112.114 422.894L112.895 437.893C113.084 441.528 116.184 444.321 119.818 444.132Z" fill="url(#paint28_linear_4_482)"/>
        </g>
        <defs>
        <linearGradient id="paint0_linear_4_482" x1="102.07" y1="334.67" x2="37.4501" y2="308.66" gradientUnits="userSpaceOnUse">
        <stop offset="0.35" stop-color="#171717"/>
        <stop offset="0.53" stop-color="#191919"/>
        <stop offset="0.66" stop-color="#222222"/>
        <stop offset="0.77" stop-color="#323232"/>
        <stop offset="0.87" stop-color="#474747"/>
        <stop offset="0.97" stop-color="#636363"/>
        <stop offset="1" stop-color="#6F6F6F"/>
        </linearGradient>
        <linearGradient id="paint1_linear_4_482" x1="108.52" y1="334.5" x2="173.14" y2="308.49" gradientUnits="userSpaceOnUse">
        <stop offset="0.37" stop-color="#171717"/>
        <stop offset="0.55" stop-color="#191919"/>
        <stop offset="0.68" stop-color="#222222"/>
        <stop offset="0.78" stop-color="#323232"/>
        <stop offset="0.88" stop-color="#474747"/>
        <stop offset="0.97" stop-color="#636363"/>
        <stop offset="1" stop-color="#6F6F6F"/>
        </linearGradient>
        <linearGradient id="paint2_linear_4_482" x1="59.0701" y1="149.43" x2="37.1101" y2="217.83" gradientUnits="userSpaceOnUse">
        <stop stop-color="#C01212"/>
        <stop offset="1" stop-color="#751212"/>
        </linearGradient>
        <linearGradient id="paint3_linear_4_482" x1="177.11" y1="163.47" x2="162.24" y2="209.78" gradientUnits="userSpaceOnUse">
        <stop stop-color="#C01212"/>
        <stop offset="1" stop-color="#751212"/>
        </linearGradient>
        <linearGradient id="paint4_linear_4_482" x1="73.4" y1="203.64" x2="13.2" y2="203.64" gradientUnits="userSpaceOnUse">
        <stop offset="0.07" stop-color="#B71858"/>
        <stop offset="0.18" stop-color="#C41C58"/>
        <stop offset="0.39" stop-color="#E7285A"/>
        <stop offset="0.51" stop-color="#FF305C"/>
        </linearGradient>
        <linearGradient id="paint5_linear_4_482" x1="138.182" y1="204.583" x2="199.38" y2="202.617" gradientUnits="userSpaceOnUse">
        <stop offset="0.07" stop-color="#B71858"/>
        <stop offset="0.18" stop-color="#C41C58"/>
        <stop offset="0.39" stop-color="#E7285A"/>
        <stop offset="0.51" stop-color="#FF305C"/>
        </linearGradient>
        <linearGradient id="paint6_linear_4_482" x1="135.34" y1="122.42" x2="100.69" y2="121.95" gradientUnits="userSpaceOnUse">
        <stop stop-color="#C01212"/>
        <stop offset="1" stop-color="#751212"/>
        </linearGradient>
        <linearGradient id="paint7_linear_4_482" x1="105.33" y1="109.1" x2="105.81" y2="115.1" gradientUnits="userSpaceOnUse">
        <stop stop-color="#C01212"/>
        <stop offset="1" stop-color="#751212"/>
        </linearGradient>
        <linearGradient id="paint8_linear_4_482" x1="124.67" y1="3.67" x2="66.8201" y2="82.95" gradientUnits="userSpaceOnUse">
        <stop offset="0.1" stop-color="#FF305C"/>
        <stop offset="0.43" stop-color="#FF9EEF"/>
        <stop offset="1" stop-color="#FF305C"/>
        </linearGradient>
        <linearGradient id="paint9_linear_4_482" x1="114.55" y1="63.47" x2="160.93" y2="22.08" gradientUnits="userSpaceOnUse">
        <stop offset="0.12" stop-color="#FF305C"/>
        <stop offset="0.43" stop-color="#FF9EEF"/>
        <stop offset="0.78" stop-color="#FF305C"/>
        </linearGradient>
        <linearGradient id="paint10_linear_4_482" x1="131.99" y1="72.92" x2="72.1501" y2="104.83" gradientUnits="userSpaceOnUse">
        <stop stop-color="#BB1958"/>
        <stop offset="0.79" stop-color="#BB1958"/>
        </linearGradient>
        <linearGradient id="paint11_linear_4_482" x1="110.39" y1="74.55" x2="83.47" y2="29.68" gradientUnits="userSpaceOnUse">
        <stop offset="0.1" stop-color="#B71858"/>
        <stop offset="0.17" stop-color="#BF1A58"/>
        <stop offset="0.58" stop-color="#ED2A5B"/>
        <stop offset="0.78" stop-color="#FF305C"/>
        </linearGradient>
        <linearGradient id="paint12_linear_4_482" x1="72.53" y1="13" x2="99.22" y2="50.43" gradientUnits="userSpaceOnUse">
        <stop stop-color="white"/>
        <stop offset="1" stop-color="#FF305C" stop-opacity="0"/>
        </linearGradient>
        <linearGradient id="paint13_linear_4_482" x1="127.35" y1="50.19" x2="151.95" y2="77.12" gradientUnits="userSpaceOnUse">
        <stop offset="0.1" stop-color="#B71858"/>
        <stop offset="0.17" stop-color="#BF1A58"/>
        <stop offset="0.58" stop-color="#ED2A5B"/>
        <stop offset="0.78" stop-color="#FF305C"/>
        </linearGradient>
        <linearGradient id="paint14_linear_4_482" x1="139.71" y1="45.01" x2="116.77" y2="2.46001" gradientUnits="userSpaceOnUse">
        <stop offset="0.1" stop-color="#B71858"/>
        <stop offset="0.17" stop-color="#BF1A58"/>
        <stop offset="0.58" stop-color="#ED2A5B"/>
        <stop offset="0.78" stop-color="#FF305C"/>
        </linearGradient>
        <linearGradient id="paint15_linear_4_482" x1="65.1601" y1="53.94" x2="64.9401" y2="27.76" gradientUnits="userSpaceOnUse">
        <stop stop-color="white" stop-opacity="0"/>
        <stop offset="0.17" stop-color="#FEFEFE" stop-opacity="0.01"/>
        <stop offset="0.3" stop-color="#FEFEFE" stop-opacity="0.05"/>
        <stop offset="0.42" stop-color="#FEFEFE" stop-opacity="0.12"/>
        <stop offset="0.53" stop-color="#FDFDFD" stop-opacity="0.21"/>
        <stop offset="0.64" stop-color="#FCFCFC" stop-opacity="0.34"/>
        <stop offset="0.75" stop-color="#FCFCFC" stop-opacity="0.48"/>
        <stop offset="0.85" stop-color="#FBFBFB" stop-opacity="0.66"/>
        <stop offset="0.94" stop-color="#F9F9F9" stop-opacity="0.86"/>
        <stop offset="1" stop-color="#F9F9F9"/>
        </linearGradient>
        <linearGradient id="paint16_linear_4_482" x1="74.9399" y1="53.86" x2="74.7199" y2="27.68" gradientUnits="userSpaceOnUse">
        <stop stop-color="white" stop-opacity="0"/>
        <stop offset="0.17" stop-color="#FEFEFE" stop-opacity="0.01"/>
        <stop offset="0.3" stop-color="#FEFEFE" stop-opacity="0.05"/>
        <stop offset="0.42" stop-color="#FEFEFE" stop-opacity="0.12"/>
        <stop offset="0.53" stop-color="#FDFDFD" stop-opacity="0.21"/>
        <stop offset="0.64" stop-color="#FCFCFC" stop-opacity="0.34"/>
        <stop offset="0.75" stop-color="#FCFCFC" stop-opacity="0.48"/>
        <stop offset="0.85" stop-color="#FBFBFB" stop-opacity="0.66"/>
        <stop offset="0.94" stop-color="#F9F9F9" stop-opacity="0.86"/>
        <stop offset="1" stop-color="#F9F9F9"/>
        </linearGradient>
        <linearGradient id="paint17_linear_4_482" x1="100.44" y1="48.22" x2="100.18" y2="18.29" gradientUnits="userSpaceOnUse">
        <stop stop-color="white" stop-opacity="0"/>
        <stop offset="0.17" stop-color="#FEFEFE" stop-opacity="0.01"/>
        <stop offset="0.3" stop-color="#FEFEFE" stop-opacity="0.05"/>
        <stop offset="0.42" stop-color="#FEFEFE" stop-opacity="0.12"/>
        <stop offset="0.53" stop-color="#FDFDFD" stop-opacity="0.21"/>
        <stop offset="0.64" stop-color="#FCFCFC" stop-opacity="0.34"/>
        <stop offset="0.75" stop-color="#FCFCFC" stop-opacity="0.48"/>
        <stop offset="0.85" stop-color="#FBFBFB" stop-opacity="0.66"/>
        <stop offset="0.94" stop-color="#F9F9F9" stop-opacity="0.86"/>
        <stop offset="1" stop-color="#F9F9F9"/>
        </linearGradient>
        <linearGradient id="paint18_linear_4_482" x1="111.62" y1="48.13" x2="111.37" y2="18.19" gradientUnits="userSpaceOnUse">
        <stop stop-color="white" stop-opacity="0"/>
        <stop offset="0.17" stop-color="#FEFEFE" stop-opacity="0.01"/>
        <stop offset="0.3" stop-color="#FEFEFE" stop-opacity="0.05"/>
        <stop offset="0.42" stop-color="#FEFEFE" stop-opacity="0.12"/>
        <stop offset="0.53" stop-color="#FDFDFD" stop-opacity="0.21"/>
        <stop offset="0.64" stop-color="#FCFCFC" stop-opacity="0.34"/>
        <stop offset="0.75" stop-color="#FCFCFC" stop-opacity="0.48"/>
        <stop offset="0.85" stop-color="#FBFBFB" stop-opacity="0.66"/>
        <stop offset="0.94" stop-color="#F9F9F9" stop-opacity="0.86"/>
        <stop offset="1" stop-color="#F9F9F9"/>
        </linearGradient>
        <linearGradient id="paint19_linear_4_482" x1="55.27" y1="34.23" x2="155.25" y2="34.23" gradientUnits="userSpaceOnUse">
        <stop stop-color="#171717"/>
        <stop offset="0.14" stop-color="#171717"/>
        <stop offset="1" stop-color="#171717"/>
        </linearGradient>
        <linearGradient id="paint20_linear_4_482" x1="118.67" y1="41.7" x2="153.02" y2="41.7" gradientUnits="userSpaceOnUse">
        <stop stop-color="#171717"/>
        <stop offset="0.14" stop-color="#171717"/>
        <stop offset="1" stop-color="#171717"/>
        </linearGradient>
        <linearGradient id="paint21_linear_4_482" x1="1.54005" y1="464.8" x2="97.34" y2="464.8" gradientUnits="userSpaceOnUse">
        <stop stop-color="#F26C22"/>
        <stop offset="1" stop-color="#C01212"/>
        </linearGradient>
        <linearGradient id="paint22_linear_4_482" x1="56.0501" y1="480.83" x2="-34.3099" y2="521.87" gradientUnits="userSpaceOnUse">
        <stop offset="0.2" stop-color="white" stop-opacity="0"/>
        <stop offset="1" stop-color="white"/>
        </linearGradient>
        <linearGradient id="paint23_linear_4_482" x1="32.5992" y1="427.283" x2="101.845" y2="430.888" gradientUnits="userSpaceOnUse">
        <stop stop-color="#ADADAD"/>
        <stop offset="1" stop-color="#CFCFCF"/>
        </linearGradient>
        <linearGradient id="paint24_linear_4_482" x1="62.0909" y1="443.917" x2="63.6374" y2="408.214" gradientUnits="userSpaceOnUse">
        <stop offset="0.31" stop-color="#BABABA"/>
        <stop offset="0.73" stop-color="white"/>
        </linearGradient>
        <linearGradient id="paint25_linear_4_482" x1="209.1" y1="464.88" x2="113.31" y2="464.88" gradientUnits="userSpaceOnUse">
        <stop stop-color="#F26C22"/>
        <stop offset="1" stop-color="#C01212"/>
        </linearGradient>
        <linearGradient id="paint26_linear_4_482" x1="154.59" y1="480.9" x2="244.95" y2="521.94" gradientUnits="userSpaceOnUse">
        <stop offset="0.2" stop-color="white" stop-opacity="0"/>
        <stop offset="1" stop-color="white"/>
        </linearGradient>
        <linearGradient id="paint27_linear_4_482" x1="178.007" y1="427.363" x2="108.76" y2="430.968" gradientUnits="userSpaceOnUse">
        <stop stop-color="#ADADAD"/>
        <stop offset="1" stop-color="#CFCFCF"/>
        </linearGradient>
        <linearGradient id="paint28_linear_4_482" x1="148.473" y1="444.001" x2="146.918" y2="408.298" gradientUnits="userSpaceOnUse">
        <stop offset="0.31" stop-color="#BABABA"/>
        <stop offset="0.73" stop-color="white"/>
        </linearGradient>
        <clipPath id="clip0_4_482">
        <rect width="210.65" height="512.58" fill="white"/>
        </clipPath>
        </defs>
        </svg>