<svg width="265" height="526" viewBox="0 0 265 526" fill="none" xmlns="http://www.w3.org/2000/svg">
<g clip-path="url(#clip0_4_1254)">
<path d="M161.64 48.09L154.67 38.4L164.02 12.66L173.23 36.97L167.79 47.52L161.64 48.09Z" fill="url(#paint0_linear_4_1254)"/>
<path d="M154.67 38.4L164.22 32.62L173.23 36.97L167.79 47.52L161.64 48.09L154.67 38.4Z" fill="url(#paint1_linear_4_1254)"/>
<path d="M167.17 122.6L165.46 122.64C164.45 122.67 163.61 121.87 163.59 120.86L161.77 44.56C161.74 43.55 162.54 42.71 163.55 42.69L165.26 42.65C166.27 42.62 167.11 43.42 167.13 44.43L168.95 120.73C168.98 121.74 168.18 122.58 167.17 122.6Z" fill="#171717"/>
<path d="M163.81 108.58L164.12 121.39L160.34 125.9L160.61 117.85L157.22 118.22L159.87 112.02L163.81 108.58Z" fill="#CFCFCF"/>
<path d="M164.02 12.66L164.22 32.62L173.23 36.97L164.02 12.66Z" fill="url(#paint2_linear_4_1254)"/>
<path d="M166.91 119L166.06 119.02C165.56 119.03 165.13 118.28 165.1 117.34L163.37 46.3401C163.35 45.4001 163.74 44.6301 164.24 44.6201L165.09 44.6001C165.59 44.5901 166.02 45.3401 166.05 46.2801L167.78 117.28C167.8 118.22 167.41 118.99 166.91 119Z" fill="url(#paint3_radial_4_1254)"/>
<path d="M167.86 106.82L168.77 120.64L173.29 125.13L172.21 116.5L175.89 116.56L172.43 110.14L167.86 106.82Z" fill="#CFCFCF"/>
<path d="M173.35 48.7899L169.26 37.5899L185.21 15.3199L187.51 41.2199L179.43 49.9099L173.35 48.7899Z" fill="url(#paint4_linear_4_1254)"/>
<path d="M169.26 37.59L180.02 34.6L187.51 41.22L179.43 49.91L173.35 48.79L169.26 37.59Z" fill="url(#paint5_linear_4_1254)"/>
<path d="M158.56 122.04L156.9 121.62C155.92 121.37 155.33 120.38 155.58 119.4L174.42 45.4399C174.67 44.4599 175.66 43.8699 176.64 44.1199L178.3 44.5399C179.28 44.7899 179.87 45.7799 179.62 46.7599L160.78 120.72C160.53 121.7 159.54 122.29 158.56 122.04Z" fill="#171717"/>
<path d="M159.11 107.63L155.95 120.04L151.09 123.36L153.52 115.69L150.17 115.13L154.39 109.87L159.11 107.63Z" fill="#CFCFCF"/>
<path d="M185.21 15.3199L180.02 34.5999L187.51 41.2199L185.21 15.3199Z" fill="url(#paint6_linear_4_1254)"/>
<path d="M159.29 118.5L158.46 118.29C157.97 118.17 157.76 117.33 157.99 116.42L175.49 47.59C175.72 46.68 176.3 46.04 176.79 46.17L177.62 46.38C178.11 46.5 178.32 47.34 178.09 48.25L160.59 117.08C160.36 117.99 159.78 118.63 159.29 118.5Z" fill="url(#paint7_radial_4_1254)"/>
<path d="M163.48 107.03L160.63 120.58L163.77 126.12L165.06 117.52L168.59 118.57L166.99 111.46L163.48 107.03Z" fill="#CFCFCF"/>
<path d="M178.27 75.72L175.88 64.04L194.95 44.37L193.39 70.33L184.12 77.72L178.27 75.72Z" fill="url(#paint8_linear_4_1254)"/>
<path d="M175.88 64.04L186.96 62.66L193.39 70.33L184.12 77.72L178.27 75.72L175.88 64.04Z" fill="url(#paint9_linear_4_1254)"/>
<path d="M152.81 145.97L151.23 145.31C150.3 144.92 149.86 143.85 150.25 142.92L179.82 72.5599C180.21 71.6299 181.28 71.1899 182.21 71.5799L183.79 72.2399C184.72 72.6299 185.16 73.6999 184.77 74.6299L155.2 144.99C154.81 145.92 153.74 146.36 152.81 145.97Z" fill="#171717"/>
<path d="M155.49 131.8L150.53 143.61L145.23 146.18L148.77 138.96L145.54 137.9L150.49 133.33L155.49 131.8Z" fill="#CFCFCF"/>
<path d="M194.95 44.37L186.96 62.66L193.39 70.33L194.95 44.37Z" fill="url(#paint10_linear_4_1254)"/>
<path d="M154.06 142.58L153.27 142.25C152.8 142.06 152.72 141.2 153.08 140.33L180.56 74.84C180.92 73.97 181.59 73.43 182.06 73.63L182.85 73.96C183.32 74.15 183.4 75.01 183.04 75.88L155.56 141.37C155.2 142.24 154.53 142.78 154.06 142.58Z" fill="url(#paint11_radial_4_1254)"/>
<path d="M159.9 131.86L155.08 144.84L157.36 150.78L159.91 142.47L163.24 144.03L162.72 136.76L159.9 131.86Z" fill="#CFCFCF"/>
<path d="M188.857 93.7682L141.574 79.222L116.963 159.222L164.246 173.768L188.857 93.7682Z" fill="#171717"/>
<path d="M179.933 98.6315L145.104 87.9166L126.976 146.841L161.806 157.556L179.933 98.6315Z" fill="url(#paint12_linear_4_1254)"/>
<path d="M77.6 120.66C77.6 120.66 59.66 216.88 46.02 246.16C36.63 266.3 18.11 273.96 18.11 273.96C16.22 278.09 40.83 285.85 43.82 288.26L42.1 294.4C42.1 294.4 85.62 299.04 114.29 292.39C146.17 297.33 175.57 289.03 180.22 287.32C182.54 286.46 186.53 282.53 192.19 280.9C202.27 278 208.23 281.83 214.44 282.81C214.44 282.81 200.46 267.76 197.98 260.98C195.5 254.2 151.05 121.76 151.05 121.76L77.62 120.67L77.6 120.66Z" fill="url(#paint13_linear_4_1254)"/>
<path d="M42.08 294.4C42.08 294.4 52.9 281.62 58.6 265.5C65.06 247.24 70.87 195.19 69.76 195.57C69.76 195.57 59.49 250.37 51.89 262.93C44.29 275.49 35.21 284.33 35.21 284.33L43.81 288.26L42.09 294.4H42.08Z" fill="url(#paint14_linear_4_1254)"/>
<path d="M214.42 282.81L200.39 265.5L176.58 198.3C176.58 198.3 188.44 277.3 183.8 285.17C183.8 285.17 193.55 277.72 203.98 280.27L214.42 282.82V282.81Z" fill="url(#paint15_linear_4_1254)"/>
<path d="M109.02 293.24C109.02 293.24 117.68 263.52 113.89 230.22L118.54 231.5C118.54 231.5 115.5 288.58 122.15 293.34L114.27 292.38L109.02 293.23V293.24Z" fill="url(#paint16_linear_4_1254)"/>
<path d="M18.7 275.33L17.5 272.58C17.7 272.49 37.74 263.57 43.07 248.66C48.61 233.17 59.96 195.53 60.07 195.15L62.94 196.02C62.83 196.4 51.46 234.11 45.89 249.68C40.12 265.81 19.57 274.95 18.7 275.33Z" fill="url(#paint17_linear_4_1254)"/>
<path d="M182.02 331.32L163.1 214.42L114.57 215.43L66.9799 214.44L46.4099 331.32C46.0899 333.14 46.0099 334.99 46.1599 336.83L49.6099 418.38L96.1799 433.73L88.0499 355.45C87.7299 352.52 87.9899 349.55 88.8299 346.72L106.93 268.29C107.94 264.87 109.47 263 111.03 262.74C112.59 263 114.12 264.87 115.13 268.29L132.22 346.72C133.06 349.55 133.32 352.52 133 355.45L128.81 433.73L173.28 421.02L182.26 336.83C182.41 334.99 182.33 333.14 182.01 331.32H182.02Z" fill="#171717"/>
<path d="M122.12 245.24L150.3 339.01L145.22 410.07L167.3 402.77L175.04 338.16L174.82 333.47L155.4 247.25L122.12 245.24Z" fill="url(#paint18_linear_4_1254)"/>
<path d="M105.47 244.28L77.2901 339.01L82.3701 410.07L55.76 401.27L52.55 338.16L52.7701 333.47L72.1901 246.29L105.47 244.28Z" fill="url(#paint19_linear_4_1254)"/>
<path d="M46.46 416.46L95.83 430.4L104.89 516.73C104.89 516.73 106.42 524.17 98.83 524.99C91.27 525.81 10.57 524.99 10.57 524.99L9.21997 512.15C9.21997 512.15 10.23 507.43 16.63 504.4C23.03 501.37 57.1 484.39 57.1 484.39L46.45 416.46H46.46Z" fill="#205221"/>
<g style="mix-blend-mode:multiply" opacity="0.5">
<path d="M54.6199 470.26C54.6199 470.26 73.6099 484.85 101.04 476.08L105.02 521.03C105.02 521.03 78.9499 481.9 33.8499 495.96L57.1099 484.4L54.6299 470.26H54.6199Z" fill="#8C8C8C"/>
</g>
<g style="mix-blend-mode:multiply" opacity="0.5">
<path d="M49.72 438.5L97.39 455.58L95.99 442.25L48.46 430.48L49.72 438.5Z" fill="#8C8C8C"/>
</g>
<path d="M7.67993 518.11C7.67993 518.83 10.3899 525.62 10.3899 525.62H106.56V516.43L7.67993 518.11Z" fill="#171717"/>
<path d="M46.5401 407L34.3101 427.17L107.21 445.2L100.39 419.53L46.5401 407Z" fill="#71B32B"/>
<path d="M36.14 497.12C36.14 497.12 16.1 505.3 14.05 510.57H46.14L62.76 503.84C62.76 503.84 60.6301 496.62 36.1501 497.11L36.14 497.12Z" fill="url(#paint20_linear_4_1254)"/>
<path d="M64.1599 477.28L72.1599 472.33L72.0999 469.78L64.3599 465.58L72.1399 460.94L72.0699 458.37L63.6699 454.1L69.0399 450.68L69.0599 447.39L60.0999 452.28L49.6299 446.95L49.9799 450.89L57.4299 454.05L50.4099 458.69L50.4999 461.22L58.7599 465.7L50.6699 470.53L50.7099 473.09L58.6499 477.44L52.1399 481.08L55.0699 482.91L61.4399 478.97L68.9199 483.07L71.9199 481.54L64.1599 477.29V477.28ZM53.7299 459.8L60.7399 455.72L68.6999 459.77L61.5399 464.04L53.7299 459.8ZM61.3799 475.75L54.0499 471.73L61.5899 467.23L68.8099 471.15L61.3799 475.75Z" fill="#71B32B"/>
<path d="M176.96 416.6L127.59 430.54L118.53 516.87C118.53 516.87 117 524.31 124.59 525.13C132.15 525.95 212.85 525.13 212.85 525.13L214.2 512.29C214.2 512.29 213.19 507.57 206.79 504.54C200.39 501.51 166.32 484.53 166.32 484.53L176.97 416.6H176.96Z" fill="#205221"/>
<g style="mix-blend-mode:multiply" opacity="0.5">
<path d="M168.8 470.4C168.8 470.4 149.81 484.99 122.38 476.22L118.4 521.17C118.4 521.17 144.47 482.04 189.57 496.1L166.31 484.54L168.79 470.4H168.8Z" fill="#8C8C8C"/>
</g>
<g style="mix-blend-mode:multiply" opacity="0.5">
<path d="M173.21 438.5L125.54 455.58L126.94 442.25L174.47 430.48L173.21 438.5Z" fill="#8C8C8C"/>
</g>
<path d="M215.74 518.25C215.74 518.97 213.03 525.76 213.03 525.76H116.86V516.57L215.74 518.25Z" fill="#171717"/>
<path d="M178.2 407L190.44 427.17L117.54 445.2L124.36 419.53L178.2 407Z" fill="#71B32B"/>
<path d="M187.28 497.25C187.28 497.25 207.32 505.43 209.37 510.7H177.28L160.66 503.97C160.66 503.97 162.79 496.75 187.27 497.24L187.28 497.25Z" fill="url(#paint21_linear_4_1254)"/>
<path d="M151.5 481.66L154.5 483.19L161.98 479.09L168.35 483.03L171.28 481.2L164.77 477.56L172.71 473.21L172.75 470.65L164.66 465.82L172.92 461.34L173.01 458.81L165.99 454.17L173.44 451.01L173.79 447.07L163.32 452.4L154.36 447.51L154.38 450.8L159.75 454.22L151.35 458.49L151.28 461.06L159.06 465.7L151.32 469.9L151.26 472.45L159.26 477.4L151.5 481.65V481.66ZM161.88 464.17L154.72 459.9L162.68 455.85L169.69 459.93L161.88 464.17ZM154.61 471.28L161.83 467.36L169.37 471.86L162.04 475.88L154.61 471.28Z" fill="#71B32B"/>
<path d="M71.2202 24.62L70.9502 89.55L133.15 78.78L130.51 4.37L76.0302 18.43C73.2102 19.16 71.2302 21.7 71.2202 24.61V24.62Z" fill="url(#paint22_linear_4_1254)"/>
<path d="M130.51 4.38L155.73 27.37C157.5 28.98 158.53 31.25 158.6 33.64L160.16 91.76L133.15 78.79L130.51 4.38Z" fill="url(#paint23_linear_4_1254)"/>
<path d="M70.9502 89.55L113.72 99.84C115.03 100.15 116.38 100.19 117.7 99.93L160.16 91.75L133.15 78.78L70.9502 89.55Z" fill="url(#paint24_linear_4_1254)"/>
<path d="M133.14 78.79L70.9502 89.55L98.1302 96.09L122.62 90.81L105.47 83.58L133.14 78.79Z" fill="url(#paint25_linear_4_1254)"/>
<path d="M160.16 91.76L147.17 85.52L122.62 90.81L135.91 96.43L160.16 91.76Z" fill="url(#paint26_linear_4_1254)"/>
<path d="M75.3401 27.94L75.1201 80.64L125.6 71.9L123.46 11.51L79.2401 22.92C76.9501 23.51 75.3501 25.57 75.3401 27.94Z" fill="url(#paint27_linear_4_1254)"/>
<path d="M75.3404 27.94L75.1504 74.18L125.42 66.69L123.46 11.51L79.2404 22.92C76.9504 23.51 75.3504 25.57 75.3404 27.94Z" fill="url(#paint28_linear_4_1254)"/>
<path d="M146.04 53.42L159.26 61.37L160.16 91.76L147.17 85.52L146.04 53.42Z" fill="url(#paint29_linear_4_1254)"/>
<path d="M146.04 53.42L131.95 44.95L130.51 4.38L145.33 17.89L146.04 53.42Z" fill="url(#paint30_linear_4_1254)"/>
<path d="M77.85 32.57C71.76 32.9 66.46 38.85 66.54 45.26C66.58 48.79 68.17 51.65 70.67 53.29L80.69 32.79C79.8 32.6 78.85 32.52 77.85 32.57Z" fill="url(#paint31_linear_4_1254)"/>
<path d="M86.56 37.12L79.04 54.35C84.78 52.57 89.01 45.87 87.65 39.95C87.41 38.91 87.04 37.97 86.56 37.12Z" fill="url(#paint32_linear_4_1254)"/>
<path d="M113.71 23.16C106.75 23.54 100.68 30.34 100.77 37.67C100.82 41.71 102.64 44.98 105.49 46.85L116.95 23.4C115.93 23.18 114.84 23.09 113.7 23.15L113.71 23.16Z" fill="url(#paint33_linear_4_1254)"/>
<path d="M123.67 28.36L115.07 48.06C121.64 46.02 126.47 38.36 124.91 31.59C124.64 30.4 124.21 29.32 123.67 28.36Z" fill="url(#paint34_linear_4_1254)"/>
<path d="M112.04 19.98C105.25 21.29 99.4201 27.25 98.0601 34.26C97.9501 34.81 97.8701 35.36 97.8001 35.86L89.6901 37.11C87.8301 32.41 83.6201 29.61 78.5601 29.77C70.4501 30.03 63.0401 37.76 63.9601 46.88C64.8001 55.29 72.5401 59.74 80.4201 56.63C86.6601 54.17 90.8001 47.79 90.5601 41.08C90.5601 40.91 90.5901 40.68 90.6501 40.47L97.7701 39.37C97.8301 39.72 97.8901 40.06 97.9401 40.38C98.7701 45.77 102.68 50.1 108.03 51.16C114.59 52.45 119.8 49.87 123.99 44.97C126.59 41.93 127.94 38.33 128.23 34.26L127.88 28.9C125.6 21.16 119.72 18.49 112.04 19.98ZM77.0901 54.99C71.0301 55.62 66.3901 51.45 66.3101 45.3C66.2301 38.76 71.6401 32.68 77.8601 32.34C82.8801 32.07 86.7401 34.97 87.8601 39.87C89.4001 46.58 83.9201 54.27 77.0801 54.99H77.0901ZM112.76 49.02C105.65 49.71 100.21 44.86 100.04 37.67C99.8601 30.02 106.06 22.82 113.4 22.18C119.77 21.62 124.62 25.42 125.76 31.86C127.13 39.59 120.57 48.27 112.76 49.03V49.02Z" fill="url(#paint35_linear_4_1254)"/>
<path d="M154.41 63.74C154.23 63.74 154.06 63.74 153.91 63.72L154.22 60.42C154.58 60.44 157.3 59.75 158.09 57.63C159.12 54.83 156.02 52.97 155.21 52.25L127.29 32.93L127.34 28.42L157.47 49.49C159.47 50.68 162.93 54.27 161.16 59.05C159.78 62.8 156.39 63.75 154.42 63.75L154.41 63.74Z" fill="url(#paint36_linear_4_1254)"/>
<path d="M165.49 119.32L205.24 175.8L175.43 199.13L151.94 154.77L165.49 119.32Z" fill="#930941"/>
<path d="M230.426 247.687L224.249 255.436C222.138 258.084 222.574 261.94 225.221 264.051L247.937 282.159C250.584 284.269 254.441 283.834 256.551 281.186L262.729 273.437C264.839 270.79 264.404 266.933 261.756 264.823L239.04 246.715C236.393 244.605 232.536 245.04 230.426 247.687Z" fill="#FF305C"/>
<path d="M242.78 289.21L251.27 269.17L254.07 270.88L244.62 287.17L242.78 289.21Z" fill="url(#paint37_linear_4_1254)"/>
<path d="M249.139 259.816L232.333 285.304C231.494 286.576 231.845 288.288 233.118 289.127L235.405 290.636C236.678 291.475 238.39 291.123 239.229 289.851L256.035 264.363C256.874 263.09 256.523 261.378 255.25 260.539L252.962 259.031C251.69 258.192 249.978 258.543 249.139 259.816Z" fill="#FF305C"/>
<path d="M253.326 264.097L239.135 285.62C238.296 286.892 238.647 288.604 239.92 289.443L242.207 290.951C243.48 291.791 245.192 291.439 246.031 290.167L260.222 268.644C261.061 267.372 260.71 265.66 259.437 264.821L257.15 263.312C255.877 262.473 254.166 262.825 253.326 264.097Z" fill="#FF305C"/>
<path d="M254.22 267.96L244.54 282.64C243.7 283.91 244.05 285.62 245.32 286.46L247.61 287.97C248.88 288.81 250.59 288.46 251.43 287.19L254.66 282.29L261.11 272.5C261.95 271.23 261.6 269.52 260.33 268.68L258.04 267.17C256.77 266.33 255.06 266.68 254.22 267.95V267.96Z" fill="#FF305C"/>
<path d="M239.59 289.33L251.37 271.47L252.88 271.06L241.01 290.27L239.59 289.33Z" fill="#930941"/>
<path d="M247.61 287.97L258.18 271.77L259.42 271.29L248.43 288.33L247.61 287.97Z" fill="#930941"/>
<path d="M226.27 259.55L175.43 199.13C175.43 199.13 172.14 170.97 177.33 168.81C182.52 166.65 205.24 175.8 205.24 175.8L237.98 248.25L226.27 259.55Z" fill="#FF305C"/>
<path d="M212.95 249.05L237.55 233.99L233.93 229.28L231.39 231.13L222.51 209.15L225.79 207.46L221.99 202.82L190.59 222.74L194.18 228.12L197.22 225.43L211.67 242.88L209.09 244.55L212.95 249.05Z" fill="#71B32B"/>
<path d="M211.67 242.88L231.39 231.13L222.51 209.15L197.22 225.43L211.67 242.88Z" fill="url(#paint38_linear_4_1254)"/>
<path d="M218.04 239.09L230.22 231.83L209.46 217.54L198.45 224.63L218.04 239.09Z" fill="url(#paint39_linear_4_1254)"/>
<path d="M215.47 213.68L227.48 221.46L225.35 216.18L219.27 210.84L215.47 213.68Z" fill="url(#paint40_linear_4_1254)"/>
<path d="M75.7401 120.26C75.7401 120.26 58.8901 132.85 52.5501 152.92C46.2101 172.99 47.2601 168.82 47.2601 168.82C47.2601 168.82 42.3401 120.15 41.9001 107.88L23.9201 112.32C23.9201 112.32 23.9201 112.33 23.9201 112.34C23.2201 116.57 13.5901 163.96 13.5901 163.96C13.5901 163.96 17.3101 208 36.5001 199.27C58.0001 189.49 69.4401 180.44 69.4401 180.44L78.2801 134.14L75.7501 120.27L75.7401 120.26Z" fill="url(#paint41_linear_4_1254)"/>
<path d="M42.38 112.68L27.28 113.09C24.2 113.74 19.79 109.74 21.5 107.09L37.82 97.36H39.04L42.38 112.68Z" fill="url(#paint42_linear_4_1254)"/>
<path d="M74.5201 150.06L57.8701 188.25L74.6001 180.7L74.5201 150.06Z" fill="url(#paint43_linear_4_1254)"/>
<path d="M14.47 52.11L0 41.37L1.65 0L26.06 30.79L23.08 48.46L14.47 52.11Z" fill="url(#paint44_linear_4_1254)"/>
<path d="M0 41.37L11.09 28.65L26.06 30.79L23.08 48.46L14.47 52.11L0 41.37Z" fill="url(#paint45_linear_4_1254)"/>
<path d="M56.6499 156.86L54.2099 157.71C52.7699 158.21 51.1999 157.45 50.6999 156.01L13.0399 46.98C12.5399 45.54 13.2999 43.97 14.7399 43.47L17.1799 42.62C18.6199 42.12 20.1899 42.88 20.6899 44.32L58.3399 153.34C58.8399 154.78 58.0799 156.35 56.6399 156.85L56.6499 156.86Z" fill="#171717"/>
<path d="M44.9001 135.39L51.7001 156.51L48.3201 164.74L45.1401 151.04L41.0601 156.92L40.8101 142.15L44.9001 135.39Z" fill="#CFCFCF"/>
<path d="M1.6499 0L11.0899 28.65L26.0599 30.79L1.6499 0Z" fill="url(#paint46_linear_4_1254)"/>
<path d="M54.6201 151.79L53.4001 152.21C52.6801 152.46 51.7201 151.58 51.2601 150.24L16.1701 48.81C15.7101 47.47 15.9101 46.18 16.6301 45.93L17.8501 45.51C18.5701 45.26 19.5301 46.14 19.9901 47.48L55.0801 148.91C55.5401 150.25 55.3401 151.54 54.6201 151.79Z" fill="url(#paint47_radial_4_1254)"/>
<path d="M50.3899 133.83L58.0599 153.3L66.6099 157.69L61.0999 145.76L66.4199 144.16L58.4999 136.5L50.3899 133.83Z" fill="#CFCFCF"/>
<path d="M51.1899 96.02L18.8799 108.54L12.7599 83.35C12.2799 81.39 13.7899 78.99 16.1199 77.99L44.3199 67.23C46.6499 66.23 48.9199 67.01 49.3999 68.97L54.6399 90.53C55.1299 92.54 53.5899 94.99 51.1999 96.02H51.1899Z" fill="#FF305C"/>
<path d="M48.3 107.84L22.33 114.02C20.76 114.45 19.3 113.63 19.09 112.2L18.03 105.22L46.85 98.2599C48.42 97.8299 49.88 98.6499 50.09 100.08L50.76 104.46C50.98 105.9 49.88 107.41 48.31 107.84H48.3Z" fill="#FF305C"/>
<path d="M46.2199 98.2099C46.2199 98.2099 49.3999 97.3699 49.9399 99.2599L28.3799 106.52L27.8899 105.55L46.2199 98.2099Z" fill="url(#paint48_linear_4_1254)"/>
<path d="M52.81 83.06C52.81 83.06 53.08 84.09 53.44 85.64L27.93 97.35L27.5 96.18L52.82 83.05L52.81 83.06Z" fill="#930941"/>
<path d="M50.44 73.3101C50.44 73.3101 50.7 74.2901 51.06 75.8501L25.5 86.5801L25.03 85.3201L50.44 73.3101Z" fill="url(#paint49_linear_4_1254)"/>
<path d="M234.64 263.15L230.57 274.5C230.3 275.08 229.76 275.5 229.13 275.62L225.77 276.27C224.6 276.5 223.5 275.67 223.38 274.49L222.68 260.01C222.53 258.53 223.79 254.83 225.19 255.34L233.52 260.4C234.63 260.81 235.15 262.08 234.65 263.15H234.64Z" fill="#FF305C"/>
<path d="M65.9299 121.11L81.9699 112.64C81.9699 112.64 93.0899 137.46 116.42 135.92C139.75 134.38 150.1 111.01 150.1 111.01L167.65 116.72L159.28 174.34L170.26 244.11L115.59 240.75L54.3899 244.11L73.4099 173.29L65.9299 121.11Z" fill="#71B32B"/>
<path d="M68.1602 136.71L164.62 195.38L167.32 223.78L72.2902 165.45L68.1602 136.71Z" fill="#171717"/>
<path d="M138.02 204.12L154.27 213.5C155.65 214.3 157.41 213.82 158.2 212.45L162.36 201.03C163.16 199.65 163.48 196.92 162.11 196.13L147.51 187.7C146.13 186.9 144.37 187.38 143.58 188.75L136.97 200.19C136.17 201.57 136.65 203.33 138.02 204.12Z" fill="url(#paint50_linear_4_1254)"/>
<path d="M76.5001 165.19L87.3601 171.53C89.3701 172.69 92.1301 171.67 93.5201 169.25L97.3301 162.65C98.7301 160.23 98.2301 157.33 96.2201 156.17L85.3601 149.83C83.3501 148.67 80.5901 149.69 79.2001 152.11L75.3901 158.71C73.9901 161.13 74.4901 164.03 76.5001 165.19Z" fill="url(#paint51_linear_4_1254)"/>
<path d="M164.29 139.52L64.1999 197.8L56.3999 229.35L159.87 169.88L164.29 139.52Z" fill="#171717"/>
<path d="M87.628 187.409L72.0742 196.389C70.6967 197.184 70.2248 198.945 71.0201 200.323L77.2501 211.114C78.0454 212.491 79.8067 212.963 81.1842 212.168L96.738 203.188C98.1155 202.392 98.5875 200.631 97.7922 199.254L91.5622 188.463C90.7669 187.085 89.0055 186.613 87.628 187.409Z" fill="url(#paint52_linear_4_1254)"/>
<path d="M156.24 168.59L148.58 173.06C146.57 174.22 143.78 173.15 142.34 170.66L138.42 163.87C136.98 161.38 137.45 158.43 139.46 157.27L150.32 150.93C152.33 149.77 155.12 150.84 156.56 153.33L158.94 159.21C160.38 161.7 158.25 167.44 156.24 168.6V168.59Z" fill="url(#paint53_linear_4_1254)"/>
<path d="M117.14 206.77C133.278 206.77 146.36 193.688 146.36 177.55C146.36 161.412 133.278 148.33 117.14 148.33C101.002 148.33 87.9199 161.412 87.9199 177.55C87.9199 193.688 101.002 206.77 117.14 206.77Z" fill="#171717"/>
<path d="M117.14 201.19C130.196 201.19 140.78 190.606 140.78 177.55C140.78 164.494 130.196 153.91 117.14 153.91C104.084 153.91 93.5 164.494 93.5 177.55C93.5 190.606 104.084 201.19 117.14 201.19Z" fill="#71B32B"/>
<path d="M117.14 197.47C128.142 197.47 137.06 188.552 137.06 177.55C137.06 166.548 128.142 157.63 117.14 157.63C106.139 157.63 97.2202 166.548 97.2202 177.55C97.2202 188.552 106.139 197.47 117.14 197.47Z" fill="#171717"/>
<path d="M117.14 195.11C126.838 195.11 134.7 187.248 134.7 177.55C134.7 167.852 126.838 159.99 117.14 159.99C107.442 159.99 99.5801 167.852 99.5801 177.55C99.5801 187.248 107.442 195.11 117.14 195.11Z" fill="url(#paint54_linear_4_1254)"/>
<path fill-rule="evenodd" clip-rule="evenodd" d="M120.05 175.95V165.46H124.59V186H120.05V180.39L121.8 180.28H110.54L105.98 175.98L110.54 175.94V170.02H115.03V175.94H120.04L120.05 175.95ZM110.54 190.54V180.98L115.03 180.7V190.54H110.54Z" fill="white"/>
<path d="M78.5099 122.79C78.5099 122.79 90.9599 138.57 115.23 135.65C139.36 132.75 157.37 119.6 156.76 111.16C156.14 102.65 83.0799 108.17 78.5199 111.98C72.0899 117.34 78.5199 122.79 78.5199 122.79H78.5099Z" fill="url(#paint55_linear_4_1254)"/>
<path d="M78.9098 123.84C91.2798 134.5 104.04 141.67 119.57 138.55C126.94 137.07 134.58 135.12 141.35 131.55C146.14 129.02 153.13 123.18 155.86 117.57C156.2 116.87 155.48 115.9 154.84 116.41C144.87 124.16 141.74 127.54 123.05 133.22C115.58 135.49 105.08 134.49 97.5498 132.18C90.8398 130.13 85.1698 127.13 79.5098 122.7C78.8798 122.21 78.3398 123.34 78.9198 123.84H78.9098Z" fill="url(#paint56_linear_4_1254)"/>
<path d="M81.2598 115.32C81.2598 115.32 89.2298 124.12 114.29 120.48C139.34 116.85 149.8 112.14 149.8 112.14C149.8 112.14 150.53 109.93 151.26 109.93C151.99 109.93 129.22 116.47 114.46 117.21C99.6998 117.95 83.9898 114.9 81.2598 115.32Z" fill="url(#paint57_linear_4_1254)"/>
<path d="M108.98 127.54C108.98 127.54 105.56 124.7 132.14 122.19C142.51 121.21 147.53 116.84 147.53 116.84C147.53 116.84 145.19 122.19 137.17 123.82C130.17 125.24 108.99 127.55 108.99 127.55L108.98 127.54Z" fill="url(#paint58_linear_4_1254)"/>
</g>
<defs>
<linearGradient id="paint0_linear_4_1254" x1="163.697" y1="49.9923" x2="164.631" y2="3.88409" gradientUnits="userSpaceOnUse">
<stop offset="0.21" stop-color="#BABABA"/>
<stop offset="0.6" stop-color="white"/>
</linearGradient>
<linearGradient id="paint1_linear_4_1254" x1="163.654" y1="48.9523" x2="164.192" y2="28.7618" gradientUnits="userSpaceOnUse">
<stop stop-color="#CCCCCC" stop-opacity="0"/>
<stop offset="1" stop-color="#171717"/>
</linearGradient>
<linearGradient id="paint2_linear_4_1254" x1="168.268" y1="38.101" x2="169.115" y2="6.83113" gradientUnits="userSpaceOnUse">
<stop stop-color="#CCCCCC" stop-opacity="0"/>
<stop offset="1" stop-color="#171717"/>
</linearGradient>
<radialGradient id="paint3_radial_4_1254" cx="0" cy="0" r="1" gradientUnits="userSpaceOnUse" gradientTransform="translate(208.781 107.741) rotate(31.39) scale(16.2568 24.0949)">
<stop stop-color="#6F6F6F"/>
<stop offset="1" stop-color="#171717"/>
</radialGradient>
<linearGradient id="paint4_linear_4_1254" x1="174.814" y1="51.1857" x2="188.156" y2="7.02719" gradientUnits="userSpaceOnUse">
<stop offset="0.21" stop-color="#BABABA"/>
<stop offset="0.6" stop-color="white"/>
</linearGradient>
<linearGradient id="paint5_linear_4_1254" x1="175.057" y1="50.1889" x2="181.033" y2="30.8855" gradientUnits="userSpaceOnUse">
<stop stop-color="#CCCCCC" stop-opacity="0"/>
<stop offset="1" stop-color="#171717"/>
</linearGradient>
<linearGradient id="paint6_linear_4_1254" x1="182.438" y1="40.9923" x2="191.697" y2="11.0995" gradientUnits="userSpaceOnUse">
<stop stop-color="#CCCCCC" stop-opacity="0"/>
<stop offset="1" stop-color="#171717"/>
</linearGradient>
<radialGradient id="paint7_radial_4_1254" cx="0" cy="0" r="1" gradientUnits="userSpaceOnUse" gradientTransform="translate(217.446 134.641) rotate(47.05) scale(16.2568 24.0949)">
<stop stop-color="#6F6F6F"/>
<stop offset="1" stop-color="#171717"/>
</radialGradient>
<linearGradient id="paint8_linear_4_1254" x1="179.361" y1="78.304" x2="199.084" y2="36.6167" gradientUnits="userSpaceOnUse">
<stop offset="0.21" stop-color="#BABABA"/>
<stop offset="0.6" stop-color="white"/>
</linearGradient>
<linearGradient id="paint9_linear_4_1254" x1="179.758" y1="77.3468" x2="188.515" y2="59.1463" gradientUnits="userSpaceOnUse">
<stop stop-color="#CCCCCC" stop-opacity="0"/>
<stop offset="1" stop-color="#171717"/>
</linearGradient>
<linearGradient id="paint10_linear_4_1254" x1="188.41" y1="69.3356" x2="201.978" y2="41.1471" gradientUnits="userSpaceOnUse">
<stop stop-color="#CCCCCC" stop-opacity="0"/>
<stop offset="1" stop-color="#171717"/>
</linearGradient>
<radialGradient id="paint11_radial_4_1254" cx="0" cy="0" r="1" gradientUnits="userSpaceOnUse" gradientTransform="translate(209.708 167.893) rotate(55.55) scale(16.2568 24.0949)">
<stop stop-color="#6F6F6F"/>
<stop offset="1" stop-color="#171717"/>
</radialGradient>
<linearGradient id="paint12_linear_4_1254" x1="145.119" y1="145.327" x2="172.399" y2="71.3966" gradientUnits="userSpaceOnUse">
<stop stop-color="#171717"/>
<stop offset="0.25" stop-color="#1A1A1A"/>
<stop offset="0.45" stop-color="#242424"/>
<stop offset="0.64" stop-color="#353535"/>
<stop offset="0.82" stop-color="#4D4D4D"/>
<stop offset="0.99" stop-color="#6C6C6C"/>
<stop offset="1" stop-color="#6F6F6F"/>
</linearGradient>
<linearGradient id="paint13_linear_4_1254" x1="111.16" y1="151.81" x2="118.6" y2="338.68" gradientUnits="userSpaceOnUse">
<stop stop-color="#202A21"/>
<stop offset="0.49" stop-color="#205221"/>
<stop offset="0.58" stop-color="#265921"/>
<stop offset="0.71" stop-color="#376E23"/>
<stop offset="0.86" stop-color="#549027"/>
<stop offset="1" stop-color="#71B32B"/>
</linearGradient>
<linearGradient id="paint14_linear_4_1254" x1="34.29" y1="308.32" x2="57.33" y2="247.36" gradientUnits="userSpaceOnUse">
<stop stop-color="#202A21"/>
<stop offset="0.11" stop-color="#203321"/>
<stop offset="0.49" stop-color="#205221"/>
<stop offset="0.55" stop-color="#265921"/>
<stop offset="0.65" stop-color="#376E23"/>
<stop offset="0.77" stop-color="#549027"/>
<stop offset="0.87" stop-color="#71B32B"/>
</linearGradient>
<linearGradient id="paint15_linear_4_1254" x1="199.62" y1="287.41" x2="190.98" y2="229.09" gradientUnits="userSpaceOnUse">
<stop stop-color="#202A21"/>
<stop offset="0.11" stop-color="#203321"/>
<stop offset="0.49" stop-color="#205221"/>
<stop offset="0.58" stop-color="#265921"/>
<stop offset="0.71" stop-color="#376E23"/>
<stop offset="0.86" stop-color="#549027"/>
<stop offset="1" stop-color="#71B32B"/>
</linearGradient>
<linearGradient id="paint16_linear_4_1254" x1="103.16" y1="301.11" x2="116.93" y2="264.67" gradientUnits="userSpaceOnUse">
<stop stop-color="#202A21"/>
<stop offset="0.11" stop-color="#203321"/>
<stop offset="0.49" stop-color="#205221"/>
<stop offset="0.55" stop-color="#265921"/>
<stop offset="0.65" stop-color="#376E23"/>
<stop offset="0.77" stop-color="#549027"/>
<stop offset="0.87" stop-color="#71B32B"/>
</linearGradient>
<linearGradient id="paint17_linear_4_1254" x1="25.38" y1="277.86" x2="57.14" y2="193.83" gradientUnits="userSpaceOnUse">
<stop stop-color="#202A21"/>
<stop offset="0.11" stop-color="#203321"/>
<stop offset="0.49" stop-color="#205221"/>
<stop offset="0.55" stop-color="#265921"/>
<stop offset="0.65" stop-color="#376E23"/>
<stop offset="0.77" stop-color="#549027"/>
<stop offset="0.87" stop-color="#71B32B"/>
</linearGradient>
<linearGradient id="paint18_linear_4_1254" x1="138.18" y1="327.31" x2="179.03" y2="324.17" gradientUnits="userSpaceOnUse">
<stop stop-color="#171717"/>
<stop offset="0.23" stop-color="#1A1A1A"/>
<stop offset="0.43" stop-color="#252525"/>
<stop offset="0.64" stop-color="#383838"/>
<stop offset="0.84" stop-color="#535353"/>
<stop offset="1" stop-color="#6F6F6F"/>
</linearGradient>
<linearGradient id="paint19_linear_4_1254" x1="89.38" y1="326.83" x2="48.6" y2="323.69" gradientUnits="userSpaceOnUse">
<stop stop-color="#171717"/>
<stop offset="0.23" stop-color="#1A1A1A"/>
<stop offset="0.43" stop-color="#252525"/>
<stop offset="0.64" stop-color="#383838"/>
<stop offset="0.84" stop-color="#535353"/>
<stop offset="1" stop-color="#6F6F6F"/>
</linearGradient>
<linearGradient id="paint20_linear_4_1254" x1="63.73" y1="493.95" x2="-26.63" y2="534.99" gradientUnits="userSpaceOnUse">
<stop offset="0.2" stop-color="white" stop-opacity="0"/>
<stop offset="1" stop-color="white"/>
</linearGradient>
<linearGradient id="paint21_linear_4_1254" x1="159.68" y1="494.08" x2="250.04" y2="535.12" gradientUnits="userSpaceOnUse">
<stop offset="0.2" stop-color="white" stop-opacity="0"/>
<stop offset="1" stop-color="white"/>
</linearGradient>
<linearGradient id="paint22_linear_4_1254" x1="133.28" y1="8.05" x2="75.4402" y2="87.33" gradientUnits="userSpaceOnUse">
<stop offset="0.1" stop-color="#FF305C"/>
<stop offset="0.43" stop-color="#FF9EEF"/>
<stop offset="1" stop-color="#FF305C"/>
</linearGradient>
<linearGradient id="paint23_linear_4_1254" x1="123.17" y1="67.85" x2="169.54" y2="26.46" gradientUnits="userSpaceOnUse">
<stop offset="0.12" stop-color="#FF305C"/>
<stop offset="0.43" stop-color="#FF9EEF"/>
<stop offset="0.78" stop-color="#FF305C"/>
</linearGradient>
<linearGradient id="paint24_linear_4_1254" x1="140.61" y1="77.29" x2="80.7702" y2="109.21" gradientUnits="userSpaceOnUse">
<stop stop-color="#BB1958"/>
<stop offset="0.79" stop-color="#BB1958"/>
</linearGradient>
<linearGradient id="paint25_linear_4_1254" x1="91.8102" y1="80.99" x2="131.2" y2="93.21" gradientUnits="userSpaceOnUse">
<stop stop-color="#930941"/>
<stop offset="1" stop-color="#930941"/>
</linearGradient>
<linearGradient id="paint26_linear_4_1254" x1="119.22" y1="84.05" x2="149.29" y2="93.38" gradientUnits="userSpaceOnUse">
<stop stop-color="#930941"/>
<stop offset="1" stop-color="#930941"/>
</linearGradient>
<linearGradient id="paint27_linear_4_1254" x1="119.01" y1="78.93" x2="92.0801" y2="34.05" gradientUnits="userSpaceOnUse">
<stop offset="0.1" stop-color="#B71858"/>
<stop offset="0.17" stop-color="#BF1A58"/>
<stop offset="0.58" stop-color="#ED2A5B"/>
<stop offset="0.78" stop-color="#FF305C"/>
</linearGradient>
<linearGradient id="paint28_linear_4_1254" x1="81.1504" y1="17.38" x2="107.84" y2="54.81" gradientUnits="userSpaceOnUse">
<stop stop-color="white"/>
<stop offset="1" stop-color="#FF305C" stop-opacity="0"/>
</linearGradient>
<linearGradient id="paint29_linear_4_1254" x1="135.97" y1="54.57" x2="160.57" y2="81.4901" gradientUnits="userSpaceOnUse">
<stop offset="0.1" stop-color="#B71858"/>
<stop offset="0.17" stop-color="#BF1A58"/>
<stop offset="0.58" stop-color="#ED2A5B"/>
<stop offset="0.78" stop-color="#FF305C"/>
</linearGradient>
<linearGradient id="paint30_linear_4_1254" x1="148.33" y1="49.39" x2="125.39" y2="6.84" gradientUnits="userSpaceOnUse">
<stop offset="0.1" stop-color="#B71858"/>
<stop offset="0.17" stop-color="#BF1A58"/>
<stop offset="0.58" stop-color="#ED2A5B"/>
<stop offset="0.78" stop-color="#FF305C"/>
</linearGradient>
<linearGradient id="paint31_linear_4_1254" x1="73.78" y1="58.32" x2="73.55" y2="32.14" gradientUnits="userSpaceOnUse">
<stop stop-color="white" stop-opacity="0"/>
<stop offset="0.17" stop-color="#FEFEFE" stop-opacity="0.01"/>
<stop offset="0.3" stop-color="#FEFEFE" stop-opacity="0.05"/>
<stop offset="0.42" stop-color="#FEFEFE" stop-opacity="0.12"/>
<stop offset="0.53" stop-color="#FDFDFD" stop-opacity="0.21"/>
<stop offset="0.64" stop-color="#FCFCFC" stop-opacity="0.34"/>
<stop offset="0.75" stop-color="#FCFCFC" stop-opacity="0.48"/>
<stop offset="0.85" stop-color="#FBFBFB" stop-opacity="0.66"/>
<stop offset="0.94" stop-color="#F9F9F9" stop-opacity="0.86"/>
<stop offset="1" stop-color="#F9F9F9"/>
</linearGradient>
<linearGradient id="paint32_linear_4_1254" x1="83.56" y1="58.24" x2="83.33" y2="32.06" gradientUnits="userSpaceOnUse">
<stop stop-color="white" stop-opacity="0"/>
<stop offset="0.17" stop-color="#FEFEFE" stop-opacity="0.01"/>
<stop offset="0.3" stop-color="#FEFEFE" stop-opacity="0.05"/>
<stop offset="0.42" stop-color="#FEFEFE" stop-opacity="0.12"/>
<stop offset="0.53" stop-color="#FDFDFD" stop-opacity="0.21"/>
<stop offset="0.64" stop-color="#FCFCFC" stop-opacity="0.34"/>
<stop offset="0.75" stop-color="#FCFCFC" stop-opacity="0.48"/>
<stop offset="0.85" stop-color="#FBFBFB" stop-opacity="0.66"/>
<stop offset="0.94" stop-color="#F9F9F9" stop-opacity="0.86"/>
<stop offset="1" stop-color="#F9F9F9"/>
</linearGradient>
<linearGradient id="paint33_linear_4_1254" x1="109.05" y1="52.6" x2="108.8" y2="22.66" gradientUnits="userSpaceOnUse">
<stop stop-color="white" stop-opacity="0"/>
<stop offset="0.17" stop-color="#FEFEFE" stop-opacity="0.01"/>
<stop offset="0.3" stop-color="#FEFEFE" stop-opacity="0.05"/>
<stop offset="0.42" stop-color="#FEFEFE" stop-opacity="0.12"/>
<stop offset="0.53" stop-color="#FDFDFD" stop-opacity="0.21"/>
<stop offset="0.64" stop-color="#FCFCFC" stop-opacity="0.34"/>
<stop offset="0.75" stop-color="#FCFCFC" stop-opacity="0.48"/>
<stop offset="0.85" stop-color="#FBFBFB" stop-opacity="0.66"/>
<stop offset="0.94" stop-color="#F9F9F9" stop-opacity="0.86"/>
<stop offset="1" stop-color="#F9F9F9"/>
</linearGradient>
<linearGradient id="paint34_linear_4_1254" x1="120.24" y1="52.5" x2="119.98" y2="22.57" gradientUnits="userSpaceOnUse">
<stop stop-color="white" stop-opacity="0"/>
<stop offset="0.17" stop-color="#FEFEFE" stop-opacity="0.01"/>
<stop offset="0.3" stop-color="#FEFEFE" stop-opacity="0.05"/>
<stop offset="0.42" stop-color="#FEFEFE" stop-opacity="0.12"/>
<stop offset="0.53" stop-color="#FDFDFD" stop-opacity="0.21"/>
<stop offset="0.64" stop-color="#FCFCFC" stop-opacity="0.34"/>
<stop offset="0.75" stop-color="#FCFCFC" stop-opacity="0.48"/>
<stop offset="0.85" stop-color="#FBFBFB" stop-opacity="0.66"/>
<stop offset="0.94" stop-color="#F9F9F9" stop-opacity="0.86"/>
<stop offset="1" stop-color="#F9F9F9"/>
</linearGradient>
<linearGradient id="paint35_linear_4_1254" x1="63.8801" y1="38.61" x2="163.87" y2="38.61" gradientUnits="userSpaceOnUse">
<stop stop-color="#171717"/>
<stop offset="0.14" stop-color="#171717"/>
<stop offset="1" stop-color="#171717"/>
</linearGradient>
<linearGradient id="paint36_linear_4_1254" x1="127.28" y1="46.08" x2="161.64" y2="46.08" gradientUnits="userSpaceOnUse">
<stop stop-color="#171717"/>
<stop offset="0.14" stop-color="#171717"/>
<stop offset="1" stop-color="#171717"/>
</linearGradient>
<linearGradient id="paint37_linear_4_1254" x1="239.576" y1="285.331" x2="255.304" y2="272.37" gradientUnits="userSpaceOnUse">
<stop stop-color="#930941"/>
<stop offset="1" stop-color="#930941"/>
</linearGradient>
<linearGradient id="paint38_linear_4_1254" x1="201.661" y1="248.422" x2="228.939" y2="204.965" gradientUnits="userSpaceOnUse">
<stop offset="0.22" stop-color="#2E6223"/>
<stop offset="0.35" stop-color="#71B32B"/>
<stop offset="0.64" stop-color="#265922"/>
<stop offset="0.73" stop-color="#2F6423"/>
<stop offset="0.99" stop-color="#71B32B"/>
</linearGradient>
<linearGradient id="paint39_linear_4_1254" x1="242.179" y1="236.778" x2="202.771" y2="225.05" gradientUnits="userSpaceOnUse">
<stop offset="0.1" stop-color="white"/>
<stop offset="0.15" stop-color="white" stop-opacity="0.96"/>
<stop offset="0.25" stop-color="white" stop-opacity="0.84"/>
<stop offset="0.37" stop-color="white" stop-opacity="0.64"/>
<stop offset="0.52" stop-color="white" stop-opacity="0.38"/>
<stop offset="0.69" stop-color="white" stop-opacity="0.04"/>
<stop offset="0.72" stop-color="white" stop-opacity="0"/>
</linearGradient>
<linearGradient id="paint40_linear_4_1254" x1="233.812" y1="219.262" x2="217.16" y2="214.299" gradientUnits="userSpaceOnUse">
<stop offset="0.1" stop-color="white"/>
<stop offset="0.15" stop-color="white" stop-opacity="0.96"/>
<stop offset="0.25" stop-color="white" stop-opacity="0.84"/>
<stop offset="0.37" stop-color="white" stop-opacity="0.64"/>
<stop offset="0.52" stop-color="white" stop-opacity="0.38"/>
<stop offset="0.69" stop-color="white" stop-opacity="0.04"/>
<stop offset="0.72" stop-color="white" stop-opacity="0"/>
</linearGradient>
<linearGradient id="paint41_linear_4_1254" x1="81.2601" y1="178.46" x2="-6.13991" y2="123.58" gradientUnits="userSpaceOnUse">
<stop offset="0.07" stop-color="#B71858"/>
<stop offset="0.18" stop-color="#C41C58"/>
<stop offset="0.39" stop-color="#E7285A"/>
<stop offset="0.51" stop-color="#FF305C"/>
</linearGradient>
<linearGradient id="paint42_linear_4_1254" x1="31.75" y1="113.16" x2="31.75" y2="97.36" gradientUnits="userSpaceOnUse">
<stop stop-color="#930941"/>
<stop offset="1" stop-color="#930941"/>
</linearGradient>
<linearGradient id="paint43_linear_4_1254" x1="57.8701" y1="169.16" x2="74.6001" y2="169.16" gradientUnits="userSpaceOnUse">
<stop stop-color="#930941"/>
<stop offset="1" stop-color="#930941"/>
</linearGradient>
<linearGradient id="paint44_linear_4_1254" x1="18.3215" y1="53.9132" x2="-1.50222" y2="-12.9168" gradientUnits="userSpaceOnUse">
<stop offset="0.21" stop-color="#BABABA"/>
<stop offset="0.6" stop-color="white"/>
</linearGradient>
<linearGradient id="paint45_linear_4_1254" x1="17.77" y1="52.44" x2="9.28" y2="23.12" gradientUnits="userSpaceOnUse">
<stop stop-color="#CCCCCC" stop-opacity="0"/>
<stop offset="1" stop-color="#171717"/>
</linearGradient>
<linearGradient id="paint46_linear_4_1254" x1="19.4399" y1="34.7" x2="6.2999" y2="-10.72" gradientUnits="userSpaceOnUse">
<stop stop-color="#CCCCCC" stop-opacity="0"/>
<stop offset="1" stop-color="#171717"/>
</linearGradient>
<radialGradient id="paint47_radial_4_1254" cx="0" cy="0" r="1" gradientUnits="userSpaceOnUse" gradientTransform="translate(35.0806 98.7335) rotate(13.71) scale(24.5672 36.4121)">
<stop stop-color="#6F6F6F"/>
<stop offset="1" stop-color="#171717"/>
</radialGradient>
<linearGradient id="paint48_linear_4_1254" x1="28.5929" y1="100.859" x2="49.2593" y2="103.907" gradientUnits="userSpaceOnUse">
<stop stop-color="#930941"/>
<stop offset="1" stop-color="#930941"/>
</linearGradient>
<linearGradient id="paint49_linear_4_1254" x1="25.8365" y1="78.5075" x2="50.4065" y2="81.4025" gradientUnits="userSpaceOnUse">
<stop stop-color="#930941"/>
<stop offset="1" stop-color="#930941"/>
</linearGradient>
<linearGradient id="paint50_linear_4_1254" x1="158.955" y1="201.348" x2="137.676" y2="189.063" gradientUnits="userSpaceOnUse">
<stop stop-color="#171717"/>
<stop offset="0.23" stop-color="#1A1A1A"/>
<stop offset="0.43" stop-color="#252525"/>
<stop offset="0.64" stop-color="#383838"/>
<stop offset="0.84" stop-color="#535353"/>
<stop offset="1" stop-color="#6F6F6F"/>
</linearGradient>
<linearGradient id="paint51_linear_4_1254" x1="98.9765" y1="146.506" x2="127.56" y2="158.061" gradientUnits="userSpaceOnUse">
<stop offset="0.3" stop-color="#171717"/>
<stop offset="0.46" stop-color="#1A1A1A"/>
<stop offset="0.6" stop-color="#252525"/>
<stop offset="0.75" stop-color="#383838"/>
<stop offset="0.88" stop-color="#535353"/>
<stop offset="1" stop-color="#6F6F6F"/>
</linearGradient>
<linearGradient id="paint52_linear_4_1254" x1="74.8666" y1="199.838" x2="95.4356" y2="187.963" gradientUnits="userSpaceOnUse">
<stop stop-color="#171717"/>
<stop offset="0.23" stop-color="#1A1A1A"/>
<stop offset="0.43" stop-color="#252525"/>
<stop offset="0.64" stop-color="#383838"/>
<stop offset="0.84" stop-color="#535353"/>
<stop offset="1" stop-color="#6F6F6F"/>
</linearGradient>
<linearGradient id="paint53_linear_4_1254" x1="125.788" y1="144.96" x2="96.5065" y2="156.34" gradientUnits="userSpaceOnUse">
<stop offset="0.3" stop-color="#171717"/>
<stop offset="0.46" stop-color="#1A1A1A"/>
<stop offset="0.6" stop-color="#252525"/>
<stop offset="0.75" stop-color="#383838"/>
<stop offset="0.88" stop-color="#535353"/>
<stop offset="1" stop-color="#6F6F6F"/>
</linearGradient>
<linearGradient id="paint54_linear_4_1254" x1="110.31" y1="200.78" x2="125.64" y2="148.59" gradientUnits="userSpaceOnUse">
<stop offset="0.34" stop-color="#171717"/>
<stop offset="0.46" stop-color="#1D1D1D"/>
<stop offset="0.63" stop-color="#2F2F2F"/>
<stop offset="0.82" stop-color="#4C4C4C"/>
<stop offset="1" stop-color="#6F6F6F"/>
</linearGradient>
<linearGradient id="paint55_linear_4_1254" x1="116.9" y1="147.5" x2="116.07" y2="108.02" gradientUnits="userSpaceOnUse">
<stop stop-color="#202A21"/>
<stop offset="0.57" stop-color="#205221"/>
<stop offset="0.64" stop-color="#265921"/>
<stop offset="0.75" stop-color="#376E23"/>
<stop offset="0.89" stop-color="#549027"/>
<stop offset="1" stop-color="#71B32B"/>
</linearGradient>
<linearGradient id="paint56_linear_4_1254" x1="78.6598" y1="127.78" x2="155.95" y2="127.78" gradientUnits="userSpaceOnUse">
<stop stop-color="#202A21"/>
<stop offset="0.49" stop-color="#205221"/>
<stop offset="0.58" stop-color="#265921"/>
<stop offset="0.71" stop-color="#376E23"/>
<stop offset="0.86" stop-color="#549027"/>
<stop offset="1" stop-color="#71B32B"/>
</linearGradient>
<linearGradient id="paint57_linear_4_1254" x1="116.72" y1="122.16" x2="116.15" y2="110.02" gradientUnits="userSpaceOnUse">
<stop stop-color="#202A21"/>
<stop offset="0.53" stop-color="#205221"/>
<stop offset="0.61" stop-color="#265921"/>
<stop offset="0.73" stop-color="#376E23"/>
<stop offset="0.88" stop-color="#549027"/>
<stop offset="1" stop-color="#71B32B"/>
</linearGradient>
<linearGradient id="paint58_linear_4_1254" x1="128.07" y1="126.31" x2="128.48" y2="110.86" gradientUnits="userSpaceOnUse">
<stop stop-color="#202A21"/>
<stop offset="0.53" stop-color="#205221"/>
<stop offset="0.61" stop-color="#265921"/>
<stop offset="0.73" stop-color="#376E23"/>
<stop offset="0.88" stop-color="#549027"/>
<stop offset="1" stop-color="#71B32B"/>
</linearGradient>
<clipPath id="clip0_4_1254">
<rect width="264.05" height="525.76" fill="white"/>
</clipPath>
</defs>
</svg>
