<?xml version="1.0" encoding="UTF-8"?><svg xmlns="http://www.w3.org/2000/svg" xmlns:xlink="http://www.w3.org/1999/xlink" viewBox="0 0 272.6 586.11"><defs><linearGradient id="Gradiente_sem_nome_140" x1="125.55" y1="455.65" x2="124.37" y2="188.07" gradientUnits="userSpaceOnUse"><stop offset=".36" stop-color="#1e4278"/><stop offset="1" stop-color="#3575d4"/></linearGradient><linearGradient id="Gradiente_sem_nome_41" x1="66.51" y1="342.78" x2="27.13" y2="532.29" gradientUnits="userSpaceOnUse"><stop offset=".19" stop-color="#1e4278"/><stop offset="1" stop-color="#00e4f5"/></linearGradient><linearGradient id="Gradiente_sem_nome_140-2" x1="67.53" y1="441.19" x2="124.19" y2="172.19" xlink:href="#Gradiente_sem_nome_140"/><linearGradient id="Gradiente_sem_nome_214" x1="196.59" y1="234.96" x2="181.61" y2="488.24" gradientUnits="userSpaceOnUse"><stop offset=".32" stop-color="#1e4278"/><stop offset="1" stop-color="#00e4f5"/></linearGradient><linearGradient id="Gradiente_sem_nome_149" x1="110.98" y1="413.48" x2="83.62" y2="530.12" gradientUnits="userSpaceOnUse"><stop offset="0" stop-color="#1e4278"/><stop offset="1" stop-color="#00e4f5"/></linearGradient><linearGradient id="Gradiente_sem_nome_94" x1="173.48" y1="198.12" x2="20.33" y2="35.33" gradientTransform="translate(-56.49 57.01) rotate(-1.66)" gradientUnits="userSpaceOnUse"><stop offset=".34" stop-color="#b71858"/><stop offset=".53" stop-color="#ff305c"/></linearGradient><linearGradient id="Gradiente_sem_nome_18" x1="124.55" y1="151.97" x2="126.51" y2="82.66" gradientUnits="userSpaceOnUse"><stop offset=".07" stop-color="#b71858"/><stop offset=".32" stop-color="#ce1f59"/><stop offset=".76" stop-color="#f12b5b"/><stop offset="1" stop-color="#ff305c"/></linearGradient><linearGradient id="Gradiente_sem_nome_28" x1="167.05" y1="174.16" x2="257.32" y2="174.16" gradientUnits="userSpaceOnUse"><stop offset=".07" stop-color="#b71858"/><stop offset=".18" stop-color="#c41c58"/><stop offset=".39" stop-color="#e7285a"/><stop offset=".51" stop-color="#ff305c"/></linearGradient><linearGradient id="Gradiente_sem_nome_55" x1="138.05" y1="341.75" x2="67.49" y2="348.95" gradientUnits="userSpaceOnUse"><stop offset=".34" stop-color="#171717"/><stop offset=".49" stop-color="#1a1a1a"/><stop offset=".63" stop-color="#252525"/><stop offset=".76" stop-color="#383838"/><stop offset=".89" stop-color="#535353"/><stop offset="1" stop-color="#6f6f6f"/></linearGradient><linearGradient id="Gradiente_sem_nome_55-2" x1="63.18" y1="341.51" x2="-7.38" y2="348.71" gradientTransform="translate(165.1) rotate(-180) scale(1 -1)" xlink:href="#Gradiente_sem_nome_55"/><linearGradient id="Gradiente_sem_nome_15" x1="166.97" y1="208.85" x2="140.09" y2="191.33" gradientUnits="userSpaceOnUse"><stop offset="0" stop-color="#171717"/><stop offset=".23" stop-color="#1a1a1a"/><stop offset=".43" stop-color="#252525"/><stop offset=".64" stop-color="#383838"/><stop offset=".84" stop-color="#535353"/><stop offset="1" stop-color="#6f6f6f"/></linearGradient><linearGradient id="Gradiente_sem_nome_56" x1="2462.62" y1="117.76" x2="2438.74" y2="135.77" gradientTransform="translate(2508.4 -556.8) rotate(166.55) scale(1.01 -1.07) skewX(16.21)" gradientUnits="userSpaceOnUse"><stop offset=".3" stop-color="#171717"/><stop offset=".46" stop-color="#1a1a1a"/><stop offset=".6" stop-color="#252525"/><stop offset=".75" stop-color="#383838"/><stop offset=".88" stop-color="#535353"/><stop offset="1" stop-color="#6f6f6f"/></linearGradient><linearGradient id="Gradiente_sem_nome_15-2" x1="1837.49" y1="1114.49" x2="1854.2" y2="1114.49" gradientTransform="translate(-2741.35 647.8) rotate(-30) scale(1.45 .92)" xlink:href="#Gradiente_sem_nome_15"/><linearGradient id="Gradiente_sem_nome_56-2" x1="2648.99" y1="71.31" x2="2625.11" y2="89.33" gradientTransform="translate(-2467.33 -595.16) rotate(14.25) scale(1.03 1.09) skewX(17.76)" xlink:href="#Gradiente_sem_nome_56"/><linearGradient id="Gradiente_sem_nome_8" x1="114.93" y1="208.9" x2="131.53" y2="152.37" gradientUnits="userSpaceOnUse"><stop offset=".34" stop-color="#171717"/><stop offset=".46" stop-color="#1d1d1d"/><stop offset=".63" stop-color="#2f2f2f"/><stop offset=".82" stop-color="#4c4c4c"/><stop offset="1" stop-color="#6f6f6f"/></linearGradient><linearGradient id="Gradiente_sem_nome_149-2" x1="95.9" y1="129.41" x2="149.9" y2="129.41" xlink:href="#Gradiente_sem_nome_149"/><linearGradient id="Gradiente_sem_nome_252" x1="67.61" y1="111.09" x2="103.78" y2="143.52" gradientTransform="translate(-22.74 16.76) rotate(-11.01)" gradientUnits="userSpaceOnUse"><stop offset=".03" stop-color="#0e2949"/><stop offset=".36" stop-color="#1e4278"/><stop offset="1" stop-color="#3575d4"/></linearGradient><linearGradient id="Gradiente_sem_nome_54" x1="83.29" y1="135.73" x2="76.64" y2="109.12" gradientTransform="translate(-22.74 16.76) rotate(-11.01)" gradientUnits="userSpaceOnUse"><stop offset="0" stop-color="#1e4278"/><stop offset="1" stop-color="#3575d4"/></linearGradient><linearGradient id="Gradiente_sem_nome_83" x1="211.02" y1="5.36" x2="216.43" y2="12.25" gradientTransform="translate(-120.98 76.8) rotate(13.01)" gradientUnits="userSpaceOnUse"><stop offset="0" stop-color="#6f6f6f"/><stop offset=".3" stop-color="#171717"/></linearGradient><linearGradient id="Gradiente_sem_nome_252-2" x1="185.14" y1="102.83" x2="148.46" y2="137.96" gradientTransform="translate(10.79 -13.78) rotate(4.81)" xlink:href="#Gradiente_sem_nome_252"/><linearGradient id="Gradiente_sem_nome_252-3" x1="159.43" y1="132.24" x2="173.71" y2="108.69" gradientTransform="translate(10.79 -13.78) rotate(4.81)" xlink:href="#Gradiente_sem_nome_252"/><linearGradient id="Gradiente_sem_nome_83-2" x1="-519.15" y1="-48.81" x2="-513.59" y2="-41.74" gradientTransform="translate(.23 -363.07) rotate(-103.01) scale(1 -1)" xlink:href="#Gradiente_sem_nome_83"/><linearGradient id="Gradiente_sem_nome_1235" x1="139.2" y1="3.67" x2="81.35" y2="82.95" gradientUnits="userSpaceOnUse"><stop offset=".1" stop-color="#ff305c"/><stop offset=".43" stop-color="#ff9eef"/><stop offset="1" stop-color="#ff305c"/></linearGradient><linearGradient id="Gradiente_sem_nome_49" x1="129.08" y1="63.47" x2="175.46" y2="22.08" gradientUnits="userSpaceOnUse"><stop offset=".12" stop-color="#ff305c"/><stop offset=".43" stop-color="#ff9eef"/><stop offset=".78" stop-color="#ff305c"/></linearGradient><linearGradient id="Gradiente_sem_nome_78" x1="146.52" y1="72.92" x2="86.68" y2="104.83" gradientUnits="userSpaceOnUse"><stop offset="0" stop-color="#bb1958"/><stop offset=".79" stop-color="#bb1958"/></linearGradient><linearGradient id="Gradiente_sem_nome_66" x1="97.73" y1="76.62" x2="137.12" y2="88.83" gradientUnits="userSpaceOnUse"><stop offset="0" stop-color="#930941"/><stop offset="1" stop-color="#930941"/></linearGradient><linearGradient id="Gradiente_sem_nome_66-2" x1="125.14" y1="79.67" x2="155.21" y2="89" xlink:href="#Gradiente_sem_nome_66"/><linearGradient id="Gradiente_sem_nome_39" x1="124.93" y1="74.55" x2="98" y2="29.68" gradientUnits="userSpaceOnUse"><stop offset=".1" stop-color="#b71858"/><stop offset=".17" stop-color="#bf1a58"/><stop offset=".58" stop-color="#ed2a5b"/><stop offset=".78" stop-color="#ff305c"/></linearGradient><linearGradient id="Gradiente_sem_nome_24" x1="87.06" y1="13" x2="113.75" y2="50.43" gradientUnits="userSpaceOnUse"><stop offset="0" stop-color="#fff"/><stop offset="1" stop-color="#ff305c" stop-opacity="0"/></linearGradient><linearGradient id="Gradiente_sem_nome_39-2" x1="141.88" y1="50.19" x2="166.48" y2="77.12" xlink:href="#Gradiente_sem_nome_39"/><linearGradient id="Gradiente_sem_nome_39-3" x1="154.24" y1="45.01" x2="131.31" y2="2.46" xlink:href="#Gradiente_sem_nome_39"/><linearGradient id="Gradiente_sem_nome_43" x1="68.63" y1="56.58" x2="100.36" y2="23.34" gradientUnits="userSpaceOnUse"><stop offset=".19" stop-color="#ccc" stop-opacity="0"/><stop offset=".73" stop-color="#fff"/></linearGradient><linearGradient id="Gradiente_sem_nome_43-2" x1="68.72" y1="43.86" x2="86.13" y2="25.62" xlink:href="#Gradiente_sem_nome_43"/><linearGradient id="Gradiente_sem_nome_11" x1="152.44" y1="13" x2="149.83" y2="35.45" gradientUnits="userSpaceOnUse"><stop offset=".33" stop-color="#6f6f6f"/><stop offset=".71" stop-color="#171717"/></linearGradient><linearGradient id="Gradiente_sem_nome_43-3" x1="100.97" y1="54.82" x2="142.69" y2="11.1" xlink:href="#Gradiente_sem_nome_43"/><linearGradient id="Gradiente_sem_nome_19" x1="101.06" y1="19.95" x2="111.61" y2="51.83" gradientUnits="userSpaceOnUse"><stop offset="0" stop-color="#171717"/><stop offset=".14" stop-color="#171717"/><stop offset="1" stop-color="#171717"/></linearGradient><linearGradient id="Gradiente_sem_nome_66-3" x1="-867.49" y1="153.87" x2="-843.02" y2="153.87" gradientTransform="translate(-700.18 48.99) rotate(-177.93) scale(1 -1)" xlink:href="#Gradiente_sem_nome_66"/><linearGradient id="Gradiente_sem_nome_66-4" x1="-867.49" y1="126.38" x2="-838.85" y2="126.38" gradientTransform="translate(-693.76 41.73) rotate(-176.27) scale(1 -1)" xlink:href="#Gradiente_sem_nome_66"/><linearGradient id="Gradiente_sem_nome_66-5" x1="-871.79" y1="118.07" x2="-842.92" y2="118.07" gradientTransform="translate(-693.76 41.73) rotate(-176.27) scale(1 -1)" xlink:href="#Gradiente_sem_nome_66"/><linearGradient id="Gradiente_sem_nome_149-3" x1="98.61" y1="383.99" x2="95.25" y2="458.87" xlink:href="#Gradiente_sem_nome_149"/><linearGradient id="Gradiente_sem_nome_149-4" x1="103.18" y1="467.58" x2="99.34" y2="390.3" xlink:href="#Gradiente_sem_nome_149"/><linearGradient id="Gradiente_sem_nome_149-5" x1="151.15" y1="424.58" x2="148.99" y2="506.66" xlink:href="#Gradiente_sem_nome_149"/><linearGradient id="Gradiente_sem_nome_149-6" x1="118.33" y1="434.35" x2="180.53" y2="434.35" xlink:href="#Gradiente_sem_nome_149"/><linearGradient id="Gradiente_sem_nome_149-7" x1="195.44" y1="429.88" x2="123.92" y2="437.56" xlink:href="#Gradiente_sem_nome_149"/><linearGradient id="Gradiente_sem_nome_160" x1="128.95" y1="419.44" x2="140.34" y2="419.81" gradientUnits="userSpaceOnUse"><stop offset=".44" stop-color="#171717"/><stop offset=".58" stop-color="#1a1a1a"/><stop offset=".69" stop-color="#242424"/><stop offset=".8" stop-color="#353535"/><stop offset=".9" stop-color="#4e4e4e"/><stop offset="1" stop-color="#6d6d6d"/><stop offset="1" stop-color="#6f6f6f"/></linearGradient><linearGradient id="Gradiente_sem_nome_160-2" x1="128.57" y1="430.95" x2="139.91" y2="431.31" xlink:href="#Gradiente_sem_nome_160"/><linearGradient id="Gradiente_sem_nome_160-3" x1="128.19" y1="441.13" x2="139.58" y2="441.49" xlink:href="#Gradiente_sem_nome_160"/><linearGradient id="Gradiente_sem_nome_160-4" x1="140.46" y1="418.17" x2="124.71" y2="419.51" xlink:href="#Gradiente_sem_nome_160"/><linearGradient id="Gradiente_sem_nome_160-5" x1="140.46" y1="431.46" x2="126.42" y2="430.59" xlink:href="#Gradiente_sem_nome_160"/><linearGradient id="Gradiente_sem_nome_160-6" x1="138.22" y1="442.53" x2="127.73" y2="440.37" xlink:href="#Gradiente_sem_nome_160"/><linearGradient id="Gradiente_sem_nome_13" x1="53" y1="156.12" x2="32.78" y2="159.91" gradientTransform="translate(-10.38 -8.16) rotate(-2.91)" gradientUnits="userSpaceOnUse"><stop offset=".31" stop-color="#bababa"/><stop offset=".73" stop-color="#fff"/></linearGradient><linearGradient id="Gradiente_sem_nome_206" x1="15.22" y1="89.55" x2="28.74" y2="184.16" gradientTransform="translate(-10.38 -8.16) rotate(-2.91)" gradientUnits="userSpaceOnUse"><stop offset="0" stop-color="#ccc" stop-opacity="0"/><stop offset="1" stop-color="#171717"/></linearGradient><linearGradient id="Gradiente_sem_nome_206-2" x1="13.56" y1="198.14" x2="45.92" y2="179.3" xlink:href="#Gradiente_sem_nome_206"/><linearGradient id="Gradiente_sem_nome_2" x1="58.43" y1="240.02" x2="63.86" y2="253.57" gradientTransform="translate(-3.02 .61) rotate(-.95)" gradientUnits="userSpaceOnUse"><stop offset=".28" stop-color="#171717"/><stop offset=".45" stop-color="#1a1a1a"/><stop offset=".6" stop-color="#252525"/><stop offset=".74" stop-color="#383838"/><stop offset=".88" stop-color="#535353"/><stop offset="1" stop-color="#6f6f6f"/></linearGradient><linearGradient id="Gradiente_sem_nome_32" x1="60.28" y1="212.38" x2="8.98" y2="99.57" gradientTransform="translate(-10.38 -8.16) rotate(-2.91)" gradientUnits="userSpaceOnUse"><stop offset="0" stop-color="#fff"/><stop offset=".83" stop-color="#6f6f6f"/></linearGradient><linearGradient id="Gradiente_sem_nome_32-2" x1="54.22" y1="214.49" x2=".72" y2="96.86" xlink:href="#Gradiente_sem_nome_32"/><linearGradient id="Gradiente_sem_nome_15-3" x1="43.16" y1="198.19" x2="47.59" y2="207.21" gradientTransform="translate(91.78 .33) rotate(25.59)" xlink:href="#Gradiente_sem_nome_15"/><linearGradient id="Gradiente_sem_nome_66-6" x1="101.78" y1="188.15" x2="126.25" y2="188.15" gradientTransform="translate(-57.42 48.99) rotate(-2.07)" xlink:href="#Gradiente_sem_nome_66"/><linearGradient id="Gradiente_sem_nome_66-7" x1="100.38" y1="188.76" x2="129.01" y2="188.76" gradientTransform="translate(-63.84 41.73) rotate(-3.73)" xlink:href="#Gradiente_sem_nome_66"/><linearGradient id="Gradiente_sem_nome_66-8" x1="96.07" y1="180.45" x2="124.94" y2="180.45" gradientTransform="translate(-63.84 41.73) rotate(-3.73)" xlink:href="#Gradiente_sem_nome_66"/><linearGradient id="Gradiente_sem_nome_37" x1="146.51" y1="329.47" x2="146.51" y2="306.87" gradientUnits="userSpaceOnUse"><stop offset="0" stop-color="#6f6f6f"/><stop offset=".49" stop-color="#171717"/><stop offset=".59" stop-color="#1a1a1a"/><stop offset=".67" stop-color="#242424"/><stop offset=".75" stop-color="#353535"/><stop offset=".82" stop-color="#4e4e4e"/><stop offset=".89" stop-color="#6d6d6d"/><stop offset=".89" stop-color="#6f6f6f"/></linearGradient><linearGradient id="Gradiente_sem_nome_160-7" x1="149.8" y1="327.32" x2="125.28" y2="299.22" gradientTransform="translate(-19.17 -8.95) rotate(2.04) scale(1.08 1.02) skewX(3.96)" xlink:href="#Gradiente_sem_nome_160"/><linearGradient id="Gradiente_sem_nome_213" x1="140.51" y1="293.54" x2="177.65" y2="344.66" gradientUnits="userSpaceOnUse"><stop offset=".17" stop-color="#14274c"/><stop offset=".52" stop-color="#1e4278"/><stop offset="1" stop-color="#00e4f5"/></linearGradient><linearGradient id="Gradiente_sem_nome_214-2" x1="171.97" y1="301.51" x2="160.93" y2="328.83" xlink:href="#Gradiente_sem_nome_214"/><linearGradient id="Gradiente_sem_nome_64" x1="177.9" y1="324.68" x2="162.7" y2="298.62" gradientUnits="userSpaceOnUse"><stop offset="0" stop-color="#fff"/><stop offset=".1" stop-color="#fefefe" stop-opacity=".94"/><stop offset=".28" stop-color="#fdfdfd" stop-opacity=".79"/><stop offset=".52" stop-color="#fcfcfc" stop-opacity=".55"/><stop offset=".81" stop-color="#fbfbfb" stop-opacity=".22"/><stop offset="1" stop-color="#fafafa" stop-opacity="0"/></linearGradient><linearGradient id="Gradiente_sem_nome_149-8" x1="165.82" y1="309.68" x2="167.23" y2="297.27" xlink:href="#Gradiente_sem_nome_149"/><linearGradient id="Gradiente_sem_nome_132" x1="161.12" y1="307.52" x2="171.01" y2="307.52" gradientUnits="userSpaceOnUse"><stop offset=".36" stop-color="#1e2c5b"/><stop offset="1" stop-color="#3575d4"/></linearGradient><linearGradient id="Gradiente_sem_nome_6" x1="166.07" y1="303.85" x2="166.07" y2="307.81" gradientUnits="userSpaceOnUse"><stop offset="0" stop-color="#fff"/><stop offset="1" stop-color="#6f6f6f" stop-opacity="0"/></linearGradient><linearGradient id="Gradiente_sem_nome_217" x1="222.24" y1="259.88" x2="183.01" y2="312.92" gradientTransform="translate(-27.65 22.25) rotate(-6.5)" gradientUnits="userSpaceOnUse"><stop offset=".39" stop-color="#171717"/><stop offset=".44" stop-color="#2c2c2c"/><stop offset=".5" stop-color="#444"/><stop offset=".58" stop-color="#575757"/><stop offset=".67" stop-color="#646464"/><stop offset=".78" stop-color="#6c6c6c"/><stop offset="1" stop-color="#6f6f6f"/></linearGradient><linearGradient id="Gradiente_sem_nome_54-2" x1="176.76" y1="298.24" x2="273.91" y2="202.94" gradientTransform="translate(-27.65 22.25) rotate(-6.5)" xlink:href="#Gradiente_sem_nome_54"/><linearGradient id="Gradiente_sem_nome_54-3" x1="195.61" y1="317.09" x2="292.61" y2="221.94" gradientTransform="translate(-27.65 22.25) rotate(-6.5)" xlink:href="#Gradiente_sem_nome_54"/><linearGradient id="Gradiente_sem_nome_54-4" x1="200.74" y1="321.51" x2="297.13" y2="226.96" gradientTransform="translate(-27.65 22.25) rotate(-6.5)" xlink:href="#Gradiente_sem_nome_54"/><linearGradient id="Gradiente_sem_nome_54-5" x1="201.13" y1="323.78" x2="299.36" y2="227.42" gradientTransform="translate(-27.65 22.25) rotate(-6.5)" xlink:href="#Gradiente_sem_nome_54"/><linearGradient id="Gradiente_sem_nome_54-6" x1="191.82" y1="314.57" x2="289.94" y2="218.32" gradientTransform="translate(-27.65 22.25) rotate(-6.5)" xlink:href="#Gradiente_sem_nome_54"/><linearGradient id="Gradiente_sem_nome_54-7" x1="185.14" y1="306.5" x2="282.28" y2="211.2" gradientTransform="translate(-27.65 22.25) rotate(-6.5)" xlink:href="#Gradiente_sem_nome_54"/><linearGradient id="Gradiente_sem_nome_54-8" x1="172.66" y1="293.74" x2="269.64" y2="198.6" gradientTransform="translate(-27.65 22.25) rotate(-6.5)" xlink:href="#Gradiente_sem_nome_54"/><linearGradient id="Gradiente_sem_nome_54-9" x1="159.05" y1="279.08" x2="255.33" y2="184.65" gradientTransform="translate(-27.65 22.25) rotate(-6.5)" xlink:href="#Gradiente_sem_nome_54"/><linearGradient id="Gradiente_sem_nome_54-10" x1="154.55" y1="279.43" x2="254.69" y2="181.19" gradientTransform="translate(-27.65 22.25) rotate(-6.5)" xlink:href="#Gradiente_sem_nome_54"/><linearGradient id="Gradiente_sem_nome_54-11" x1="155.99" y1="278.4" x2="254.21" y2="182.04" gradientTransform="translate(-27.65 22.25) rotate(-6.5)" xlink:href="#Gradiente_sem_nome_54"/><linearGradient id="Gradiente_sem_nome_54-12" x1="175.43" y1="297.05" x2="272.79" y2="201.55" gradientTransform="translate(-27.65 22.25) rotate(-6.5)" xlink:href="#Gradiente_sem_nome_54"/><linearGradient id="Gradiente_sem_nome_54-13" x1="207.49" y1="244.61" x2="259.96" y2="244.61" gradientTransform="translate(-27.65 22.25) rotate(-6.5)" xlink:href="#Gradiente_sem_nome_54"/><linearGradient id="Gradiente_sem_nome_15-4" x1="173.22" y1="227.36" x2="217.75" y2="227.36" gradientTransform="translate(-27.65 22.25) rotate(-6.5)" xlink:href="#Gradiente_sem_nome_15"/><linearGradient id="Gradiente_sem_nome_149-9" x1="221.38" y1="243.71" x2="246.06" y2="243.71" gradientTransform="translate(-27.65 22.25) rotate(-6.5)" xlink:href="#Gradiente_sem_nome_149"/></defs><g style="isolation:isolate;"><g id="Camada_2"><g id="Camada_1-2"><path d="m56.5,120.2s-3.54,132.6-5.26,159.27c-2.19,39.12-19.32,135.57-40.06,152.33,0,0,31.9-6.67,40.4-3.97,4.21,1.34,13.27,12.62,17.16,12.39s21.71-12.75,27.93-11.66,21.45,6.87,21.45,6.87l68.62,12.36s6.27,1.85,6.22-7.35c0-1.63,1.11-3.04,2.72-3.32,4.87-.84,14.58-2.11,18.66.28,3.57,2.09,25.41,2.82,25.41,2.82,0,0-17.35-46.58-26.04-75-22.92-74.97-36.52-258.81-34.65-252.62l-27.72-11.49s-11.52,1.83-29.02,2.93c-13.6.85-28.3-.78-28.3-.78,0,0,.51.9-8.61,3.92s-28.91,13.02-28.91,13.02Z" style="fill:url(#Gradiente_sem_nome_140);"/><path d="m36.62,427.73s18.31-28.99,25.32-94.02c4.73-43.84,17.7-136.12,17.7-136.12l-15.81,240.08s-9.64-8.72-14.05-9.94c-5.86-1.62-13.16,0-13.16,0Z" style="fill:url(#Gradiente_sem_nome_41);"/><path d="m78.89,437.66s16.93-178.91,17.86-215.06c.92-36.15-10.55,213.34-10.55,213.34l-7.3,1.72Z" style="fill:url(#Gradiente_sem_nome_140-2);"/><path d="m193.3,438.64l-25.49-219.43s21.6,193.7,46.53,218.19c0,0-7.86-.88-13-.91-4.49-.03-6.19.66-8.04,2.16Z" style="fill:url(#Gradiente_sem_nome_214);"/><path d="m121.95,431.27l-47.55-16.23,12.47,93.41-44.88,14.2c-1.99,1.18-3.21,3.32-3.21,5.63l-3.85,23.12,89.12.23-2.09-120.36Z" style="fill:url(#Gradiente_sem_nome_149);"/><path d="m61.19,516.43s50.5,6.66,50.38,34.94l12.46.27-.06-59.5s-16.62,14.35-39.11,2.08l2,15.6-25.68,6.62Z" style="fill:#bababa; mix-blend-mode:multiply;"/><polygon points="32.36 543.07 32.36 551.4 126.7 553 126.7 540.74 32.36 543.07" style="fill:#171717;"/><path d="m80.89,118.16l13.13,88.49-52.12,13.06s7.88,19.38-7.95,23.92c-14.3,4.1-19-22.63-19-22.63,0,0-3.52-9.76,9.62-17.08,14.28-7.95,35.74-16.25,35.74-16.25,0,0,4.01-1.2.47-10.69-1.34-3.6-5.84-16.94-7.15-21.37-2.9-9.8.2-20.43,8.06-26.97,1.37-1.14,2.87-2.28,4.53-3.42,12.18-8.37,14.67-7.06,14.67-7.06Z" style="fill:url(#Gradiente_sem_nome_94);"/><path d="m85.88,432.35c7.48-44.39,10.4-88.82,8.73-133.81-.02-.45-.7-.45-.7,0-.34,44.37-4.12,89.12-11.28,132.92-.35,2.12,2.89,3.04,3.25.9h0Z" style="fill:#171717;"/><path d="m89.41,113.14s42.83-10.17,72.58-3.96c0,0-4.97,24.85-31.91,27.14-26.94,2.29-40.67-23.18-40.67-23.18Z" style="fill:url(#Gradiente_sem_nome_18);"/><path id="Braco_esc" d="m224.77,160.68c-20.28-31.85-54.52-52.44-55.77-47.3-2.59,10.71-1.86,44.23-1.86,44.23,17.99,17.99,47.26,47.69,46.69,48.43l39.11,29.68c1.25-1.39,2.36-3.22,3.63-5.71,4.41-8.64-11.52-37.48-31.81-69.34Z" style="fill:url(#Gradiente_sem_nome_28);"/><path id="Calça" d="m66.71,242.83l12.93,200.51s86.97,13.98,85.3,10.76c-1.67-3.21,8.84-219,8.84-219l-107.06,7.73Z" style="fill:#171717;"/><polygon points="74.83 256.91 84.25 435.23 116.69 435.23 103.41 256.87 74.83 256.91" style="fill:url(#Gradiente_sem_nome_55);"/><polygon points="165.14 256.66 155.73 434.99 123.29 434.99 136.57 256.63 165.14 256.66" style="fill:url(#Gradiente_sem_nome_55-2);"/><rect x="118.53" y="277.7" width="4" height="163.52" transform="translate(-15.36 5.52) rotate(-2.47)" style="fill:#5e5e5e;"/><polygon points="130.09 281.69 104.97 279.53 103.41 275.39 130.12 277.77 130.09 281.69" style="fill:#5e5e5e;"/><g id="Armadura"><polygon points="151.57 111.21 179.54 129.2 166.82 187.42 183.07 251.25 117.52 244 65.15 249.86 79.6 184.7 64.51 126.1 93.34 111.37 96.82 122.86 122.65 136.25 151.31 120.28 151.57 111.21" style="fill:#00e4f5;"/><line x1="131.37" y1="125.95" x2="131.37" y2="125.95" style="fill:none; stroke:#256fbf; stroke-linecap:round; stroke-linejoin:round; stroke-width:0px;"/><g id="Armadura-2"><line x1="131.44" y1="131.27" x2="131.45" y2="131.27" style="fill:none; stroke:#256fbf; stroke-linecap:round; stroke-linejoin:round; stroke-width:0px;"/></g><polygon points="67.49 137.68 170.49 197.03 171.95 223.4 74.4 169.42 67.49 137.68" style="fill:#171717;"/><path d="m144.74,206.07l16.34,9.36c1.29.74,2.97.23,3.77-1.15l2.87-13.39c.8-1.38.4-3.1-.89-3.84l-12.6-7.41c-1.29-.74-2.97-.23-3.77,1.15l-6.61,11.44c-.8,1.38-.4,3.1.89,3.84Z" style="fill:url(#Gradiente_sem_nome_15);"/><path d="m79.19,167.12l10.86,6.34c2.01,1.16,4.77.14,6.16-2.28l3.81-6.6c1.4-2.42.9-5.32-1.11-6.48l-10.86-6.34c-2.01-1.16-4.77-.14-6.16,2.28l-3.81,6.6c-1.4,2.42-.9,5.32,1.11,6.48Z" style="fill:url(#Gradiente_sem_nome_56);"/><polygon points="176.8 141.75 74.4 200.6 66.33 230.75 170.23 172.34 176.8 141.75" style="fill:#171717;"/><path d="m100.9,207.07l-15.55,8.98c-1.38.8-3.14.32-3.93-1.05l-5.27-10.09c-.8-1.38-.32-3.14,1.05-3.93l15.55-8.98c1.38-.8,3.14-.32,3.93,1.05l5.27,10.09c.8,1.38.32,3.14-1.05,3.93Z" style="fill:url(#Gradiente_sem_nome_15-2);"/><path d="m168.98,170.11l-8.7,4.57c-2.01,1.16-4.8.09-6.24-2.4l-3.92-6.79c-1.44-2.49-.97-5.44,1.04-6.6l10.86-6.34c2.01-1.16,4.8-.09,6.24,2.4l1.98,7.41c.27,3.78.75,6.6-1.26,7.76Z" style="fill:url(#Gradiente_sem_nome_56-2);"/><circle cx="122.32" cy="183.73" r="31.65" style="fill:#171717;"/><circle cx="122.32" cy="183.73" r="25.61" style="fill:#00e4f5;"/><circle cx="122.32" cy="183.73" r="21.57" style="fill:#171717;"/><circle cx="122.32" cy="183.73" r="19.02" style="fill:url(#Gradiente_sem_nome_8);"/><path id="logo" d="m125.47,182v-11.37s4.92,0,4.92,0v22.25s-4.92,0-4.92,0v-6.07s1.9-.12,1.9-.12h-12.2s-4.94-4.66-4.94-4.66l4.94-.04v-6.41s4.87,0,4.87,0v6.41h5.43Zm-10.3,15.8v-10.36s4.87-.3,4.87-.3v10.65s-4.87,0-4.87,0Z" style="fill:#fff; fill-rule:evenodd;"/><polygon points="122.67 138.51 95.9 124.63 97.74 121.08 122.63 133.99 148.01 120.3 149.9 123.82 122.67 138.51" style="fill:url(#Gradiente_sem_nome_149-2);"/></g><path d="m94.67,104.82l6.15,14.84-11.66,20.06-24.16.5-8.04-15.82c-1.36-2.67-.54-5.93,1.8-7.14l29.59-15.29c2.31-1.19,5.18.1,6.32,2.85Z" style="fill:url(#Gradiente_sem_nome_252);"/><polygon points="91 106.48 95.24 118.58 86.08 135.06 65.95 134.01 60.31 121.59 91 106.48" style="fill:url(#Gradiente_sem_nome_54);"/><ellipse cx="84.46" cy="131.75" rx="5.5" ry="4.62" transform="translate(-51.91 54.97) rotate(-27.96)" style="fill:#171717;"/><ellipse cx="84.46" cy="131.75" rx="3.58" ry="3.01" transform="translate(-51.91 54.97) rotate(-27.96)" style="fill:url(#Gradiente_sem_nome_83);"/><path d="m150.45,103.65l-5.5,15.53,13.02,19.92,24.77-.78,7.39-16.63c1.25-2.81.23-6.1-2.23-7.21l-31.13-14.09c-2.43-1.1-5.3.38-6.32,3.25Z" style="fill:url(#Gradiente_sem_nome_252-2);"/><polygon points="154.3 105.16 150.6 117.78 160.86 134.17 181.43 132.02 186.53 119 154.3 105.16" style="fill:url(#Gradiente_sem_nome_252-3);"/><ellipse cx="162.34" cy="130.7" rx="4.74" ry="5.64" transform="translate(-24.68 222.68) rotate(-65.03)" style="fill:#171717;"/><ellipse cx="162.34" cy="130.7" rx="3.09" ry="3.67" transform="translate(-24.68 222.68) rotate(-65.03)" style="fill:url(#Gradiente_sem_nome_83-2);"/><g id="rosto"><path d="m77.14,20.25l-.27,64.93,62.2-10.77L136.43,0l-54.48,14.06c-2.82.73-4.8,3.27-4.81,6.18Z" style="fill:url(#Gradiente_sem_nome_1235);"/><path d="m136.43,0l25.22,22.99c1.77,1.61,2.8,3.88,2.87,6.27l1.56,58.12-27.01-12.97L136.43,0Z" style="fill:url(#Gradiente_sem_nome_49);"/><path d="m76.87,85.17l42.77,10.29c1.31.31,2.66.35,3.98.09l42.46-8.18-27.01-12.97-62.2,10.77Z" style="fill:url(#Gradiente_sem_nome_78);"/><polygon points="139.06 74.41 76.87 85.17 104.05 91.72 128.54 86.44 111.39 79.2 139.06 74.41" style="fill:url(#Gradiente_sem_nome_66);"/><polygon points="166.07 87.38 153.09 81.14 128.54 86.44 141.83 92.05 166.07 87.38" style="fill:url(#Gradiente_sem_nome_66-2);"/><path d="m81.26,23.56l-.22,52.7,50.48-8.74-2.14-60.39-44.22,11.41c-2.29.59-3.89,2.65-3.9,5.02Z" style="fill:url(#Gradiente_sem_nome_39);"/><path d="m81.26,23.56l-.19,46.24,50.27-7.49-1.96-55.18-44.22,11.41c-2.29.59-3.89,2.65-3.9,5.02Z" style="fill:url(#Gradiente_sem_nome_24);"/><polygon points="151.96 49.04 165.18 56.99 166.07 87.38 153.09 81.14 151.96 49.04" style="fill:url(#Gradiente_sem_nome_39-2);"/><polygon points="151.96 49.04 137.86 40.57 136.43 0 151.25 13.51 151.96 49.04" style="fill:url(#Gradiente_sem_nome_39-3);"/></g><path d="m89.51,27.35l-14.93,19.8s1.27,4.21,5.58,4.7l12.54-25.38-3.19.88Z" style="fill:url(#Gradiente_sem_nome_43);"/><polygon points="83.63 28.97 80.32 29.82 73.48 37.56 73.48 40.76 83.63 28.97" style="fill:url(#Gradiente_sem_nome_43-2);"/><polygon points="135.02 15.03 166.85 34.11 166.81 37.1 135.35 29.07 135.02 15.03" style="fill:url(#Gradiente_sem_nome_11);"/><path d="m127.1,18.4l-19.03,23.4s-2.18,3.1,9.27,4.9l16.63-30.2-6.87,1.9Z" style="fill:url(#Gradiente_sem_nome_43-3);"/><path d="m82.62,53.36c-2.77,0-5.13-.75-7.03-2.23-4.01-3.13-4.36-8.38-4.37-8.6v-.05s.16-12.7.16-12.7l21.47-5.69c.83-.21,1.67-.06,2.43.41,1.35.84,2.28,2.6,2.81,4.08l2.85-.63c.51-3.08,2.64-6.42,5.56-7.16l29.97-7.67.38,15.89c.09,1.2.87,16.17-14.35,19.01-5.95,1.11-10.88.18-14.67-2.77-4.79-3.73-6.37-9.65-6.87-12.59l-2.19.55c.37,6.64-1.81,17.78-12.76,19.83-1.19.22-2.33.33-3.4.33Zm-8.4-10.97c.04.43.46,4.23,3.24,6.39,1.92,1.49,4.61,1.93,8,1.3,11.92-2.22,10.29-17.21,10.22-17.85l-.15-1.31.11-.03-.05-.23c-.42-1.89-1.52-3.6-2-3.67l-19.23,5.1-.13,10.3Zm29.49-11.99l.02.3c0,.08.59,8.02,5.96,12.19,3.08,2.39,7.2,3.12,12.26,2.17,13.05-2.44,11.96-15.3,11.91-15.84v-.11s-.29-12.16-.29-12.16l-26.32,6.73c-1.71.44-3.37,3.12-3.42,5.52l-.02,1.18-.09.02Z" style="fill:url(#Gradiente_sem_nome_19);"/><path d="m168.59,212.15l1.18-9.81c.08-.64.46-1.21,1.02-1.52l2.98-1.67c1.04-.58,2.35-.14,2.83.94l5.24,11.78c.61,1.36-.42,2.89-1.91,2.84l-9.4-.3c-1.18-.04-2.08-1.08-1.94-2.26Z" style="fill:#ff305c;"/><path d="m136.05,226.32l34.79,15.82,11.77-19.66c.91-1.53-.36-3.76-2.85-4.98l-30.39-13.67c-2.49-1.22-5.25-.97-6.16.56l-10.07,16.83c-.94,1.57.37,3.85,2.92,5.1Z" style="fill:#ff305c;"/><path d="m137.38,236.09l28.72,9.46c1.73.62,3.53.24,4.02-.83l2.37-5.23-31.86-10.58c-1.73-.62-3.53-.24-4.02.83l-1.49,3.28c-.49,1.08.52,2.45,2.25,3.06Z" style="fill:#ff305c;"/><path d="m141.35,228.98s-3.5-1.23-4.47.23l23.42,9.66.74-.71-19.69-9.17Z" style="fill:url(#Gradiente_sem_nome_66-3);"/><path d="m136.62,215.4s-.51.8-1.21,2.02l27.12,13.99.72-.88-26.63-15.13Z" style="fill:url(#Gradiente_sem_nome_66-4);"/><path d="m141.18,207.79s-.49.76-1.19,1.98l27.36,13.2.77-.96-26.95-14.22Z" style="fill:url(#Gradiente_sem_nome_66-5);"/><polygon points="72.63 457.49 125.45 447.34 125.46 412.76 68.43 395.07 72.63 457.49" style="fill:url(#Gradiente_sem_nome_149-3);"/><polygon points="77.24 449.61 126.79 438.62 125.46 416.18 75.04 403.35 77.24 449.61" style="fill:url(#Gradiente_sem_nome_149-4);"/><path d="m118.33,413.3l11.7,116.22-10.66,30.43c-.91,2.15-3.83,8.05-1.89,9.35l25.68,12.27c1.86,1.25,4.33,1.07,5.99-.43l30.88-16.86c1.76-1.58-.87-3.22-2.12-5.23-5.48-8.8-17.89-29.69-17.95-31.1-.07-1.76,20.56-131.92,20.56-131.92l-62.2,17.26Z" style="fill:url(#Gradiente_sem_nome_149-5);"/><path d="m126.18,491.29s5.95,11.57,17.63,10.52,23.99-25,23.99-25l-7.83,51.14,13.22,23.37s-12.51-10.93-28.52-10.34c-16.02.59-22.83,11.93-22.83,11.93l8.19-23.39-3.85-38.23Z" style="fill:#bababa; mix-blend-mode:multiply;"/><path d="m117.9,558.77l21.24,17.02,13.9-.11,25.99-17.36s5.71,6.64,1.36,10.28c-4.36,3.64-25.05,17.37-25.05,17.37l-17.93.14-20.05-16.69s-4.91-2.79.54-10.65Z" style="fill:#171717;"/><polygon points="173.77 472.67 120.76 449.7 118.33 413.3 180.53 396.04 173.77 472.67" style="fill:url(#Gradiente_sem_nome_149-6);"/><polygon points="169.61 461.51 130.55 444.58 128.63 415.88 173.77 403.35 169.61 461.51" style="fill:url(#Gradiente_sem_nome_149-7);"/><path d="m138.86,422.92l-13.9,1.02c-.58.04-1.07-.41-1.07-.99v-4.23c0-.48.34-.89.81-.98l13.9-2.6c.61-.11,1.18.35,1.18.98v5.81c0,.52-.4.95-.92.99Z" style="fill:url(#Gradiente_sem_nome_160);"/><path d="m138.56,434.76l-13.44-2.68c-.48-.1-.82-.51-.82-1v-2.31c0-.56.46-1.02,1.02-1.02h13.44c.56,0,1.02.46,1.02,1.02v4.99c0,.64-.59,1.13-1.22,1Z" style="fill:url(#Gradiente_sem_nome_160-2);"/><path d="m138.71,447.28l-13.42-5.38c-.29-.11-.48-.39-.49-.7l-.09-5.23c-.02-.52.48-.91.98-.77l13.51,3.8c.33.09.57.4.57.75v6.82c0,.55-.55.92-1.06.72Z" style="fill:url(#Gradiente_sem_nome_160-3);"/><path d="m137.82,421.39l-11.84.87c-.49.04-.91-.35-.91-.84v-2.95c0-.41.29-.76.69-.83l11.84-2.22c.52-.1,1,.3,1,.83v4.3c0,.44-.34.81-.78.84Z" style="fill:url(#Gradiente_sem_nome_160-4);"/><path d="m137.26,434.07l-10.77-2.15c-.38-.08-.66-.41-.66-.8v-1.85c0-.45.37-.82.82-.82h10.77c.45,0,.82.37.82.82v4c0,.52-.47.9-.98.8Z" style="fill:url(#Gradiente_sem_nome_160-5);"/><path d="m137.01,446.16l-10.33-4.14c-.22-.09-.37-.3-.37-.54l-.07-4.56c-.01-.4.37-.7.76-.59l10.4,2.92c.26.07.44.31.44.57v5.79c0,.42-.43.71-.82.55Z" style="fill:url(#Gradiente_sem_nome_160-6);"/><path d="m76.41,213.95s.02-.02,0-.02-.02.02,0,.02h0Z" style="fill:#fff;"/><g id="espada_mao"><g id="Espada"><g id="Espada-2"><path d="m47.14,160.11l-5.42-2.02,2.92-9.46-4.43-20.36L1.02,87.32s-.88,57.32-.4,58.56c.48,1.24,41.55,70.84,41.55,70.84l16.19-5.05-11.22-51.57Z" style="fill:url(#Gradiente_sem_nome_13);"/><polygon points=".62 145.88 27.15 150.15 40.21 128.27 1.02 87.32 .62 145.88" style="fill:url(#Gradiente_sem_nome_206);"/><polygon points="27.15 150.15 50.16 216.32 42.17 216.72 .62 145.88 27.15 150.15" style="fill:url(#Gradiente_sem_nome_206-2);"/><path d="m75.12,239.08l-3.97-.16c-.53-.02-1.02-.3-1.3-.74l-16.59,8.35c.06.35,0,.72-.19,1.03l-3.9,6.54c-.59,1,.1,2.26,1.28,2.34l16.71,1.12c.68.05,1.32-.34,1.58-.96l7.81-15.37c.42-1-.31-2.11-1.42-2.15Z" style="fill:url(#Gradiente_sem_nome_2);"/><path d="m59.7,201.76c-.48-.75-9.26-.09-10.01.4l-9.89,5.79c-.52.34-4.43,5.36-4.33,5.96l17.77,33.18,16.61-8.92-10.14-36.42Z" style="fill:#171717;"/><polygon points="56.28 203.13 47.37 160.12 46.08 159.66 54.15 203.57 56.28 203.13" style="fill:url(#Gradiente_sem_nome_32);"/><polygon points="40.75 128.15 40.71 127.99 .41 85.87 0 145.88 0 146.04 37.78 210.76 38.79 210.17 1.17 145.73 1.56 88.77 39.63 128.55 44.14 150.33 44.86 148.02 40.75 128.15" style="fill:url(#Gradiente_sem_nome_32-2);"/></g><rect x="25.19" y="196.44" width="40.76" height="13.39" rx="1.96" ry="1.96" transform="translate(-83.26 39.6) rotate(-25.59)" style="fill:#171717;"/><rect x="27.24" y="196.39" width="35.84" height="11.77" rx="1.96" ry="1.96" transform="translate(-82.92 39.34) rotate(-25.59)" style="fill:url(#Gradiente_sem_nome_15-3);"/></g></g><path d="m76.22,225.56l-34.79,15.82-11.77-19.66c-.91-1.53.36-3.76,2.85-4.98l30.39-13.67c2.49-1.22,5.25-.97,6.16.56l10.07,16.83c.94,1.57-.37,3.85-2.92,5.1Z" style="fill:#ff305c;"/><path d="m74.9,235.33l-28.72,9.46c-1.73.62-3.53.24-4.02-.83l-2.37-5.23,31.86-10.58c1.73-.62,3.53-.24,4.02.83l1.49,3.28c.49,1.08-.52,2.45-2.25,3.06Z" style="fill:#ff305c;"/><path d="m70.93,228.22s3.5-1.23,4.47.23l-23.42,9.66-.74-.71,19.69-9.17Z" style="fill:url(#Gradiente_sem_nome_66-6);"/><path d="m75.65,214.63s.51.8,1.21,2.02l-27.12,13.99-.72-.88,26.63-15.13Z" style="fill:url(#Gradiente_sem_nome_66-7);"/><path d="m71.1,207.02s.49.76,1.19,1.98l-27.36,13.2-.77-.96,26.95-14.22Z" style="fill:url(#Gradiente_sem_nome_66-8);"/><g id="Apetrecho"><g id="Apetrecho-2"><g id="Apetrecho-3"><g id="Apetrecho-4"><path d="m118.28,305.32l55.09-.63c1.61-.02,2.98,1.28,2.96,2.79l-.45,16.93c-.01.83-.7,1.46-1.59,1.45l-53.91-.33c-1.01.02-1.89-.76-1.92-1.71l-1.77-16.92c-.03-.88.67-1.57,1.6-1.59Z" style="fill:url(#Gradiente_sem_nome_37);"/><path d="m156.15,309.47c-6.55-.66-13.06-.83-19.6-.84-3.25,0-6.51.02-9.74.18-2.85.14-5.57.1-7.36,2.27-.75.92-.66,2.29.37,3.14,2.24,1.85,4.37,1.68,7.15,1.6,3.24-.09,6.48-.27,9.72-.39,6.47-.25,12.96-.32,19.42-.67,3.07-.16,3.36-4.95.04-5.29h0Z" style="fill:url(#Gradiente_sem_nome_160-7);"/></g></g></g></g><rect x="144.22" y="294.59" width="32.95" height="53.45" rx="4.2" ry="4.2" style="fill:url(#Gradiente_sem_nome_213);"/><rect x="150.76" y="300.66" width="26.41" height="41.32" rx="4.2" ry="4.2" style="fill:url(#Gradiente_sem_nome_214-2);"/><path d="m175.98,312.92h-20.61c-2.36,0-3.2-1.83-3.6-4.83-.53-4.02-2.28-5.58-4.16-8.04-2.05-1.99-1.29-5.46,2.8-5.46h20.1c2.36,0,6.57-.38,6.85,4.39s2.24,6.96,2.9,9.54-1.91,4.39-4.28,4.39Z" style="fill:#00e4f5;"/><path d="m174.23,310.28h-16.05c-1.84,0-2.49-1.42-2.8-3.76-.41-3.13-1.78-4.34-3.24-6.26-1.6-1.55-1-4.25,2.18-4.25h15.65c1.84,0,5.11-.29,5.33,3.42s1.75,5.42,2.26,7.43-1.49,3.42-3.33,3.42Z" style="fill:url(#Gradiente_sem_nome_64);"/><ellipse cx="166.07" cy="307.52" rx="4.44" ry="3.11" style="fill:url(#Gradiente_sem_nome_149-8);"/><path d="m166.09,311.13c-.6,0-1.22-.08-1.82-.25-1.43-.4-2.5-1.25-2.94-2.33-.33-.81-.26-1.68.19-2.45h0c1.04-1.81,3.83-2.66,6.35-1.95,1.43.4,2.5,1.25,2.94,2.33.33.81.26,1.68-.19,2.45-.79,1.38-2.6,2.2-4.53,2.2Zm-3.71-4.53h0c-.29.51-.34,1.05-.12,1.58.31.78,1.17,1.43,2.28,1.74,2.03.57,4.42-.11,5.21-1.49.29-.51.34-1.05.12-1.58-.31-.78-1.17-1.43-2.28-1.74-2.03-.58-4.42.11-5.21,1.49Z" style="fill:url(#Gradiente_sem_nome_132);"/><ellipse cx="166.07" cy="306.73" rx="2.64" ry="1.85" style="fill:url(#Gradiente_sem_nome_6);"/><path d="m177.15,314.28l-21.44-.36c-4.01,0-4.38-3.04-4.64-5.25-.12-1.04-.24-2.02-.64-2.69-1.27-2.12-4.41-6-4.45-6.04l-.08-.12c-.93-1.55-1.08-2.85-.44-3.83,1.15-1.77,4.25-1.48,4.87-1.41l-.25,1.98c-.99-.12-2.61,0-2.95.51-.18.27-.01.89.44,1.66.42.52,3.3,4.09,4.56,6.22.62,1.03.76,2.27.91,3.47.29,2.42.51,3.49,2.68,3.49l21.46.36-.03,2Z" style="fill:#fafafa;"/><ellipse cx="220.18" cy="246.85" rx="65.95" ry="52.42" transform="translate(-30.73 462.4) rotate(-88.93)" style="fill:#171717;"/><path d="m183.9,292.38c9.48,12.12,22.14,18.83,35.65,18.89,21.97.1,40.92-17.58,48.25-42.34-26.96-2-74.66-7.24-74.66-7.24l-23.8-12.85c.28,16.44,5.4,31.84,14.56,43.54Z" style="fill:none;"/><path d="m219.56,310.89c-12.95-.06-25.08-6.49-34.17-18.1-8.78-11.22-13.69-25.97-13.95-41.74l-3.02-1.63c-.06,17.02,5.1,33.04,14.58,45.17,9.66,12.35,22.63,19.19,36.53,19.25,1.66,0,3.31-.08,4.93-.27,20.47-2.33,37.66-19.62,44.4-43.04-.98-.07-2-.14-3.05-.22-7.02,23.73-25.19,40.68-46.25,40.58Z" style="fill:url(#Gradiente_sem_nome_217);"/><ellipse cx="224.64" cy="245.69" rx="55.61" ry="44.2" transform="translate(-25.19 465.72) rotate(-88.93)" style="fill:#171717;"/><path d="m228.56,303.6c-1.48.17-2.97.25-4.49.24-25.81-.12-46.55-26.3-46.24-58.37.31-32.06,21.58-58.06,47.37-57.94,25.81.12,46.55,26.3,46.24,58.37h0c-.29,30.18-19.15,54.99-42.88,57.69Zm-7.29-110.75c-21.15,2.41-37.96,25.07-38.23,52.65-.28,29.25,18.15,53.14,41.08,53.25,22.92.11,41.83-23.61,42.12-52.86h0c.28-29.25-18.14-53.14-41.08-53.24-1.31,0-2.61.07-3.89.21Z" style="fill:url(#Gradiente_sem_nome_54-2);"/><path d="m219.11,297.5l9.98-28.56c.94-2.79,1.83-5.62,2.56-6.32l.92-.1s.03-.01.04,0c.34,1.47-.55,5.13-.71,6.13l-3.68,31.66s-3.99.65-8.86-.11c-1.08-.17-.55-1.67-.26-2.71Z" style="fill:url(#Gradiente_sem_nome_54-3);"/><path d="m247.52,291.74l-3.57-28.13c.59-.04-1.56-7.72-1.22-10.08.12-.83,1.82-2.93,2.64-.3,1.05,3.37,7.47,26.04,8.64,30.06.1.35.91,1.51.4,1.94l-3.25,3.69c-.36.22-3.56,3.51-3.63,2.82Z" style="fill:url(#Gradiente_sem_nome_54-4);"/><path d="m255,252.9c.26.77,11.07,9.14,11.07,9.14,0,0,.52-1.59.74-3.01.46-2.9.43-2.75.43-2.75l-9.92-4.51-2.32,1.13Z" style="fill:url(#Gradiente_sem_nome_54-5);"/><path d="m251.63,237.4l1.01.15s15.23,1.4,15.19,1.04-.61-5.51-.61-5.51l-14.93,2.85-.65,1.46Z" style="fill:url(#Gradiente_sem_nome_54-6);"/><polygon points="253.12 223.27 254.58 225.71 264.1 221.7 260.53 214.15 253.12 223.27" style="fill:url(#Gradiente_sem_nome_54-7);"/><path d="m246.86,198.13l-4.99,24.7s-.95,1.48.75,1.31c1.7-.17,9.36-21.91,9.36-21.91l-5.13-4.11Z" style="fill:url(#Gradiente_sem_nome_54-8);"/><path d="m221.42,190.91l8.69,21.18s1.73,1.84,1.8.28-4.09-21.76-4.09-21.76c0,0-5.33-.08-6.4.3Z" style="fill:url(#Gradiente_sem_nome_54-9);"/><path d="m193.54,207.97l34.1,18.48-1.38,1.64-37.08-14.01s3.58-6.51,4.35-6.12Z" style="fill:url(#Gradiente_sem_nome_54-10);"/><path d="m182.7,231.58l-1.41,8.59c-.06.62-.28,1.22.35,1.14l29.26-4.01-.24-2.11-27.96-3.6Z" style="fill:url(#Gradiente_sem_nome_54-11);"/><polygon points="188.85 277.83 195.12 286.34 228.46 247.3 227.66 245.66 188.85 277.83" style="fill:url(#Gradiente_sem_nome_54-12);"/><ellipse cx="232.27" cy="238.84" rx="23.74" ry="25.9" transform="translate(-25.54 27.83) rotate(-6.5)" style="fill:#171717;"/><path d="m232.71,267.21c-13.26,0-24.86-10.85-26.52-25.4-.85-7.5,1.03-14.86,5.3-20.74,4.32-5.94,10.55-9.65,17.56-10.45,14.38-1.63,27.51,9.69,29.28,25.25h0c.85,7.5-1.03,14.86-5.3,20.74-4.32,5.94-10.55,9.65-17.56,10.45-.93.11-1.85.16-2.77.16Zm-.9-51.75c-.73,0-1.46.04-2.2.12-5.6.64-10.6,3.63-14.08,8.42-3.53,4.86-5.08,10.98-4.37,17.23,1.46,12.82,12.12,22.17,23.75,20.85,5.6-.64,10.6-3.63,14.08-8.42,3.53-4.86,5.08-10.98,4.37-17.23-1.37-12.01-10.8-20.97-21.55-20.97Z" style="fill:url(#Gradiente_sem_nome_54-13);"/><path d="m209.98,185.5c-1.33.32-2.65.67-3.96,1.07l.63-.16c-1.57.34-3.11,1.05-4.58,1.69s-3,1.42-4.44,2.25c-2.48,1.42-4.84,3.05-7.03,4.87-2.38,1.98-4.61,4.15-6.51,6.58-1.95,2.49-3.6,5.23-5.13,7.99-3,5.45-5.21,11.22-6.8,17.21-.75,2.85-1.34,5.74-1.76,8.66-.46,3.2-.61,6.42-.65,9.65-.03,2.94.08,5.88.47,8.79.19,1.46.45,2.89.81,4.31.41,1.65.86,3.29,1.37,4.91.11.34.19.69.33,1.02.22.49.55.87.9,1.27.6.68,1.42,1.01,2.33.79s1.45-.9,1.67-1.77c.06-.25.15-.5.19-.76.09-.5,0-1.02-.06-1.52-.07-.59-.14-1.19-.19-1.78-.11-1.17-.2-2.35-.25-3.53-.11-2.38-.28-4.76-.36-7.14-.04-1.36-.05-2.72-.02-4.09,0,.32-.01.63-.02.95.14-5.66.86-11.36,2.16-16.89.37-1.56.78-3.11,1.25-4.65l-.27.91c1.49-4.93,3.45-9.75,5.88-14.31.69-1.29,1.41-2.56,2.18-3.81l-.47.75c2.05-3.29,4.59-6.34,7.42-9.03l-.6.57c1.81-1.72,3.76-3.3,5.81-4.73s4.16-2.77,6.34-3.98l-.58.32c.84-.46,1.69-.9,2.52-1.37l-.54.3c.97-.53,1.95-1.04,2.94-1.52.92-.44,1.45-1.33,1.2-2.33-.22-.86-1.2-1.73-2.18-1.49h0Z" style="fill:url(#Gradiente_sem_nome_15-4);"/><path d="m219.68,237.29c.26-.82,8-3.31,8.82-4.84s1.37-7.5,1.37-7.5c0,0,.37-.92,1.1-.13s3.96,4.81,4.8,5.36,1.95.59,3.12.37,3.75-1.13,4.66-.53-2.15,6.02-2.48,7.37,4.26,7.32,3.28,8.24-6.75-.47-7.53-.08-5.39,6.21-6.12,6.17-1.39-9.3-2.32-9.23-8.98-4.32-8.7-5.21Z" style="fill:url(#Gradiente_sem_nome_149-9);"/></g></g></g></svg>